<svg xmlns="http://www.w3.org/2000/svg" viewBox="0 0 90 90"><defs><style>.a,.d{fill:none;}.a{stroke:#0277bd;stroke-width:3px;}.b{fill:#0277bd;}.c{stroke:none;}</style></defs><g transform="translate(4046 -8840)"><g class="a" transform="translate(-4046 8840)"><circle class="c" cx="45" cy="45" r="45"/><circle class="d" cx="45" cy="45" r="43.5"/></g><g transform="translate(-4027.149 8855.203)"><g transform="translate(0 0)"><path class="b" d="M45.507,56.378a7.041,7.041,0,1,0-7.041-7.041A7.049,7.049,0,0,0,45.507,56.378Zm0-11.65A4.609,4.609,0,1,1,40.9,49.336,4.614,4.614,0,0,1,45.507,44.727Z" transform="translate(-18.115 -20.157)"/><path class="b" d="M78.88,56.378a7.041,7.041,0,1,0-7.041-7.041A7.049,7.049,0,0,0,78.88,56.378Zm0-11.65a4.609,4.609,0,1,1-4.609,4.609A4.614,4.614,0,0,1,78.88,44.727Z" transform="translate(-31.194 -20.157)"/><path class="b" d="M92.216,87.375A1.217,1.217,0,0,0,91,88.591v1.662a1.216,1.216,0,0,0,2.432,0V88.591A1.217,1.217,0,0,0,92.216,87.375Z" transform="translate(-38.703 -37.824)"/><path class="b" d="M55.569,67.043H51.71A5.994,5.994,0,0,0,47.2,69.091l-3.185,3.646a2.545,2.545,0,0,1-1.655.846V71.735a4.7,4.7,0,0,0-4.7-4.687H36.9c-.429,0-.454,0-4.3,3.3l-3.976-3.051a1.2,1.2,0,0,0-.819-.249c-.152,0-.69,0-.692,0a4.692,4.692,0,0,0-4.686,4.687v1.854a2.545,2.545,0,0,1-1.714-.853l-3.185-3.645a5.992,5.992,0,0,0-4.513-2.049H9.161A4.163,4.163,0,0,0,5,71.2v1.088a1.216,1.216,0,1,0,2.432,0V71.2a1.727,1.727,0,0,1,1.729-1.723H13.02A3.559,3.559,0,0,1,15.7,70.692l3.185,3.644a4.99,4.99,0,0,0,3.759,1.708h2.991a.927.927,0,1,1,0,1.854H20.5a1.38,1.38,0,0,1-.926-.356L16,74.319a1.216,1.216,0,1,0-1.63,1.805l1.059.955v5.2a1.216,1.216,0,1,0,2.432,0V79.276l.081.074a3.8,3.8,0,0,0,1.339.772v2.164a1.216,1.216,0,1,0,2.432,0V80.332h3.917c.067,0,.133-.006.2-.01.05,0,.1.01.153.01H31.5a1.216,1.216,0,1,0,0-2.432H28.863a3.351,3.351,0,0,0-3.227-4.286h-.771V71.735a2.257,2.257,0,0,1,2.254-2.254c.116,0,.237,0,.361,0l4.429,3.4a1.218,1.218,0,0,0,1.532-.042s2.91-2.5,3.909-3.353h.311a2.262,2.262,0,0,1,2.265,2.254v1.877H39.1A3.351,3.351,0,0,0,35.87,77.9H34.9a1.216,1.216,0,1,0,0,2.432h3.9c.051,0,.1,0,.154-.007s.093.007.14.007h3.917v1.954a1.216,1.216,0,1,0,2.432,0V80.121a3.8,3.8,0,0,0,1.339-.772l.081-.074v3.01a1.216,1.216,0,1,0,2.432,0v-5.2l1.059-.955a1.216,1.216,0,1,0-1.63-1.805l-3.573,3.223a1.378,1.378,0,0,1-.926.356H39.1a.927.927,0,1,1,0-1.854h2.991a4.987,4.987,0,0,0,3.758-1.708l3.185-3.645a3.561,3.561,0,0,1,2.681-1.217h3.859A1.728,1.728,0,0,1,57.3,71.2V77.3a1.216,1.216,0,0,0,2.432,0V71.2A4.166,4.166,0,0,0,55.569,67.043Z" transform="translate(-5 -29.856)"/><path class="b" d="M5,49.336a7.041,7.041,0,1,0,7.041-7.041A7.049,7.049,0,0,0,5,49.336Zm7.041-4.609a4.609,4.609,0,1,1-4.609,4.609A4.614,4.614,0,0,1,12.044,44.727Z" transform="translate(-5.001 -20.157)"/><path class="b" d="M6.216,78.75A1.217,1.217,0,0,0,5,79.966v6.907a1.216,1.216,0,0,0,2.432,0V79.966A1.217,1.217,0,0,0,6.216,78.75Z" transform="translate(-5 -34.444)"/><path class="b" d="M22.877,28.072a1.214,1.214,0,0,0,1.321.145l6.423-3.25h2.149a9.538,9.538,0,0,0,0-19.076H27.115a9.539,9.539,0,0,0-3.891,18.246L22.478,26.8A1.216,1.216,0,0,0,22.877,28.072ZM20.012,15.426a7.111,7.111,0,0,1,7.1-7.1h5.655a7.106,7.106,0,0,1,0,14.211H30.332c-.013,0-.026,0-.039,0a1.758,1.758,0,0,0-.243.032c-.036.009-.071.021-.106.033a1.263,1.263,0,0,0-.126.049c-.012.005-.023.008-.035.013L25.565,24.8l.3-1.073a1,1,0,0,0,.018-.1c.008-.043.019-.085.022-.128s0-.075,0-.113a1.225,1.225,0,0,0,0-.125,1.014,1.014,0,0,0-.023-.112c-.009-.04-.015-.079-.027-.117s-.029-.071-.044-.106-.029-.073-.047-.108-.042-.064-.064-.1-.042-.066-.067-.1a1.093,1.093,0,0,0-.083-.085c-.027-.027-.053-.056-.083-.081s-.068-.046-.1-.069a1.153,1.153,0,0,0-.1-.063,1.165,1.165,0,0,0-.116-.049c-.033-.013-.064-.031-.1-.041A7.163,7.163,0,0,1,20.012,15.426Z" transform="translate(-9.93 -5.891)"/><path class="b" d="M33.258,22.75a1.215,1.215,0,0,0,.86.356c.033,0,.067,0,.1,0a1.217,1.217,0,0,0,.889-.505l4.41-6.174a1.216,1.216,0,0,0-1.979-1.413l-3.576,5.005L31.5,17.557a1.216,1.216,0,1,0-1.72,1.72Z" transform="translate(-14.573 -9.265)"/></g></g></g></svg>