<svg xmlns="http://www.w3.org/2000/svg" viewBox="0 0 89.833 89.833"><defs><style>.a,.b,.d{fill:none;}.a{stroke:#0176bd;}.a,.b{stroke-width:3px;}.b{stroke:#0277bd;}.c{stroke:none;}</style></defs><g transform="translate(3493.833 -9296.167)"><ellipse class="a" cx="4.432" cy="4.432" rx="4.432" ry="4.432" transform="translate(-3463.157 9311.342)"/><g class="b" transform="translate(-3493.833 9296.167)"><ellipse class="c" cx="44.917" cy="44.917" rx="44.917" ry="44.917"/><ellipse class="d" cx="44.917" cy="44.917" rx="43.417" ry="43.417"/></g><path class="a" d="M9.488,16.654a13.9,13.9,0,0,0,5.049,1.851c.056,2.076.337,11.22.337,11.388.112,2.356.337,6.227.337,7.517a89.441,89.441,0,0,1-2.244,9.144l4.1.561h.112a.337.337,0,0,0,.224-.056c.785-2.861,2.244-8.078,2.244-9.705,0-1.066-.112-3.534-.224-5.778a1.223,1.223,0,0,1,.28.224,16.159,16.159,0,0,0,2.581,1.234c.841.393,2.524,1.066,3.254,1.515a47.05,47.05,0,0,1-.224,7.069H29.74c.785-8.19-.168-9.256-.617-9.817-.785-.954-2.468-1.683-5.049-2.8a5.662,5.662,0,0,1-.841-.393l.112-10.154A13.9,13.9,0,0,0,28.394,16.6c2.02-1.234,4.881-5.329,5.442-6.115a1.905,1.905,0,0,0-.5-2.637,1.958,1.958,0,0,0-2.637.5c-1.178,1.683-3.254,4.432-4.264,5.049a9.907,9.907,0,0,1-4.937,1.4H16.389a10.724,10.724,0,0,1-4.937-1.4c-1.01-.617-3.085-3.31-4.264-5.049a1.9,1.9,0,0,0-3.142,2.132C4.608,11.325,7.413,15.364,9.488,16.654Z" transform="translate(-3477.694 9306.636)"/><path class="a" d="M56.761,80.127l-7.069-6.9c-.112-.112-.224-.281-.337-.393L45.485,67H38.473l-3.7,2.3-8.639.056a2.432,2.432,0,0,0-1.683.729l-3.815,3.983a2.4,2.4,0,0,1-2.02.729l-5.161-.673A2.393,2.393,0,0,0,11.1,75.3L8.123,80.688a2.414,2.414,0,0,0,2.132,3.422H55.022a2.343,2.343,0,0,0,2.132-1.234A2.2,2.2,0,0,0,56.761,80.127Z" transform="translate(-3479.526 9280.526)"/></g></svg>