<svg xmlns="http://www.w3.org/2000/svg" viewBox="0 0 90 90"><defs><style>.a,.d{fill:none;}.a,.b{stroke:#0277bd;}.a{stroke-width:3px;}.b{fill:#0277bd;fill-rule:evenodd;}.c{stroke:none;}</style></defs><g transform="translate(3110 -8840)"><g class="a" transform="translate(-3110 8840)"><circle class="c" cx="45" cy="45" r="45"/><circle class="d" cx="45" cy="45" r="43.5"/></g><g transform="translate(-3087.715 8864.545)"><g transform="translate(0 0)"><path class="b" d="M42.747,21.393a3.4,3.4,0,0,1-1.754,2.969c-.05.027-.1.054-.151.079l-.021.01c-.06.029-.122.056-.184.082l-.038.015q-.08.032-.161.059l-.033.011a3.4,3.4,0,0,1-.4.106l-.013,0c-.061.012-.123.022-.185.03l-.046.006q-.079.01-.158.015l-.051,0c-.067,0-.135.007-.2.007s-.106,0-.158,0l-.063,0-.088-.007-.084-.009-.057-.007-.106-.015h0a3.429,3.429,0,0,1-2.218-1.391l-.026-.036-.048-.073-.036-.057-.041-.067-.039-.067-.035-.063c-.014-.025-.027-.051-.04-.077l-.029-.059q-.03-.063-.058-.128c-.01-.024-.02-.049-.03-.073s-.019-.046-.027-.069-.02-.056-.03-.084l-.019-.057q-.015-.047-.029-.094a3.378,3.378,0,0,1-.138-.955V19.228h6.8Zm-2.171,4.988V42.693H17.948V29.533a.872.872,0,0,0-.872-.871H8.526a.872.872,0,0,0-.872.871v13.16H3.943V26.387l.03.006q.118.027.237.05l.06.011c.075.013.15.024.225.034l.069.009c.074.008.149.015.224.02l.069.005c.1.005.192.009.289.009.077,0,.154,0,.231-.006l.06,0c.069,0,.138-.009.206-.016l.092-.01.112-.014A5.151,5.151,0,0,0,9.314,24.4l.052-.073c.019-.027.038-.053.057-.08.018.027.038.054.057.08l.052.073A5.151,5.151,0,0,0,13,26.481l.112.014.092.01c.068.007.137.012.206.016l.06,0c.077,0,.154.006.231.006s.154,0,.231-.006l.06,0c.069,0,.138-.009.206-.016l.092-.01.112-.014A5.151,5.151,0,0,0,17.863,24.4l.052-.073c.019-.027.038-.053.057-.08.018.027.038.054.057.08l.052.073a5.151,5.151,0,0,0,3.466,2.077l.112.014.091.01c.069.007.137.012.206.016l.06,0c.077,0,.154.006.231.006s.154,0,.231-.006l.06,0c.069,0,.138-.009.206-.016l.091-.01.112-.014A5.151,5.151,0,0,0,26.412,24.4l.052-.073c.019-.027.038-.053.057-.08.018.027.038.054.057.08l.052.073A5.151,5.151,0,0,0,30.1,26.481l.112.014.092.01c.068.007.137.012.206.016l.06,0c.077,0,.154.006.231.006s.154,0,.231-.006l.06,0c.069,0,.138-.009.206-.016l.092-.01.112-.014A5.151,5.151,0,0,0,34.961,24.4l.054-.075.055-.079.055.079.054.075a5.151,5.151,0,0,0,3.466,2.076l.112.014.092.01c.068.007.137.012.206.016l.06,0c.077,0,.154.006.231.006.1,0,.2,0,.294-.009l.072-.005c.076-.005.151-.012.226-.021l.072-.009q.117-.015.233-.036l.055-.01c.09-.017.179-.036.267-.057l.013,0ZM9.4,42.693h6.8V30.4H9.4ZM1.745,19.228h6.8v2.165a3.381,3.381,0,0,1-.137.952q-.015.05-.031.1l-.017.05c-.01.03-.021.06-.032.089l-.024.06c-.014.036-.029.072-.045.107s-.03.067-.045.1-.021.042-.031.063l-.037.073-.037.066-.037.064-.042.069L8,23.241l-.05.074-.024.034a3.428,3.428,0,0,1-2.219,1.393h0l-.106.015-.057.007-.084.009-.088.007-.063,0c-.052,0-.105,0-.158,0s-.134,0-.2-.006l-.051,0c-.052,0-.1-.009-.155-.015l-.048-.006q-.086-.012-.171-.027l-.025,0a3.408,3.408,0,0,1-.4-.1l-.039-.013q-.073-.024-.145-.052l-.056-.022c-.044-.018-.087-.037-.131-.057l-.053-.024c-.054-.026-.106-.053-.159-.082a3.4,3.4,0,0,1-1.773-2.98Zm12.509,5.515-.106.015-.057.007-.084.009-.088.007-.063,0c-.052,0-.105,0-.158,0s-.106,0-.158,0l-.063,0-.088-.007-.084-.009-.057-.007-.106-.015h0a3.428,3.428,0,0,1-2.219-1.393l-.024-.034-.05-.074-.035-.054-.042-.069-.037-.064-.037-.066-.037-.073c-.011-.021-.021-.042-.032-.063s-.031-.067-.045-.1-.03-.071-.045-.107l-.024-.06c-.011-.03-.021-.059-.032-.089l-.017-.05c-.011-.033-.021-.066-.031-.1a3.381,3.381,0,0,1-.137-.952V19.228h6.8v2.165a3.379,3.379,0,0,1-.137.952q-.015.05-.031.1l-.017.05c-.01.03-.021.06-.032.089l-.024.06c-.014.036-.029.072-.045.107s-.03.067-.045.1-.021.042-.031.063l-.037.073-.037.066-.037.064-.042.069-.035.054-.05.074-.024.034a3.428,3.428,0,0,1-2.219,1.393Zm8.549,0-.106.015-.057.007-.084.009-.088.007-.063,0c-.052,0-.105,0-.158,0s-.106,0-.158,0l-.063,0-.088-.007-.084-.009-.057-.007-.106-.015h0a3.428,3.428,0,0,1-2.219-1.393l-.024-.034-.05-.074-.035-.054-.042-.069-.037-.064-.037-.066-.037-.073c-.011-.021-.021-.042-.031-.063s-.031-.067-.045-.1-.03-.071-.045-.107l-.024-.06c-.011-.03-.021-.059-.032-.089l-.017-.05q-.016-.049-.031-.1a3.381,3.381,0,0,1-.137-.952V19.228h6.8v2.165a3.381,3.381,0,0,1-.137.952q-.015.05-.031.1l-.017.05c-.01.03-.021.06-.032.089l-.024.06c-.014.036-.029.072-.045.107s-.03.067-.045.1-.021.042-.031.063l-.037.073-.037.066-.037.064-.042.069-.035.054-.05.074-.024.034a3.428,3.428,0,0,1-2.219,1.393ZM34.2,21.393a3.38,3.38,0,0,1-.137.952c-.01.033-.02.066-.031.1l-.017.05c-.01.03-.021.06-.032.089l-.024.06c-.014.036-.029.072-.045.107s-.03.067-.045.1-.021.042-.032.063l-.037.073-.037.066-.037.064-.042.069-.035.054-.05.074-.024.034a3.428,3.428,0,0,1-2.219,1.393h0l-.106.015-.056.007-.084.009-.088.007-.063,0c-.052,0-.105,0-.158,0s-.106,0-.158,0l-.063,0-.088-.007-.084-.009-.057-.007-.106-.015h0a3.428,3.428,0,0,1-2.219-1.393l-.024-.034-.05-.074-.035-.054-.042-.069-.037-.064-.037-.066-.037-.073c-.011-.021-.021-.042-.031-.063s-.031-.067-.045-.1-.03-.071-.045-.107l-.024-.06c-.011-.03-.021-.059-.032-.089l-.017-.05q-.016-.049-.031-.1a3.379,3.379,0,0,1-.137-.952V19.228h6.8ZM5.741,11.582H38.668l3.436,5.9H2.373Zm7.645-1.741H31.106V8.147H13.386ZM10.331,6.406H34.248V1.741H10.331ZM44.491,18.349a.872.872,0,0,0-.006-.1c0-.009,0-.018,0-.028q-.006-.04-.016-.078c0-.009,0-.017-.007-.026a.836.836,0,0,0-.032-.095v0a.841.841,0,0,0-.047-.1l0-.008-4.449-7.646a.873.873,0,0,0-.754-.433H32.85V8.147h2.27a.872.872,0,0,0,.872-.871V.871A.871.871,0,0,0,35.121,0H9.459a.872.872,0,0,0-.872.871V7.276a.872.872,0,0,0,.872.871h2.183V9.841H5.234a.873.873,0,0,0-.758.44L.114,17.926l0,.005a.863.863,0,0,0-.046.1l0,.013a.864.864,0,0,0-.028.086l-.007.026q-.009.039-.015.08c0,.008,0,.016,0,.025a.876.876,0,0,0-.006.1v3.036A5.131,5.131,0,0,0,2.2,25.6V43.564a.872.872,0,0,0,.872.871H41.449a.872.872,0,0,0,.872-.871V25.58a5.13,5.13,0,0,0,2.171-4.187V18.357h0s0,0,0-.007ZM23.118,37.693H35.629V30.4H23.118ZM36.5,28.662H22.246a.872.872,0,0,0-.872.871v9.031a.872.872,0,0,0,.872.871H36.5a.872.872,0,0,0,.872-.871V29.533a.872.872,0,0,0-.872-.871Z"/></g></g></g></svg>