<svg xmlns="http://www.w3.org/2000/svg" viewBox="0 0 50.295 42.545"><defs><style>.a{fill:none;stroke:#fff;stroke-linecap:round;stroke-linejoin:round;stroke-miterlimit:10;stroke-width:2px;}</style></defs><g transform="translate(1 1)"><path class="a" d="M23.069,6.5H52.28a1.9,1.9,0,0,1,1.869,1.869V27.3a1.9,1.9,0,0,1-1.869,1.869H48.93V36.1a.976.976,0,0,1-1.636.7l-7.556-7.556H23.069A1.9,1.9,0,0,1,21.2,27.376V8.447A1.913,1.913,0,0,1,23.069,6.5Z" transform="translate(-5.855 -6.5)"/><path class="a" d="M16.845,19.3H3.369A1.9,1.9,0,0,0,1.5,21.169V40.1a1.9,1.9,0,0,0,1.869,1.869H6.719V48.9a.976.976,0,0,0,1.636.7l7.556-7.556H32.58a1.9,1.9,0,0,0,1.869-1.869V32.153" transform="translate(-1.5 -9.33)"/><circle class="a" cx="2.259" cy="2.259" r="2.259" transform="translate(20.72 8.724)"/><circle class="a" cx="2.259" cy="2.259" r="2.259" transform="translate(29.522 8.724)"/><circle class="a" cx="2.259" cy="2.259" r="2.259" transform="translate(38.402 8.724)"/></g></svg>