<svg xmlns="http://www.w3.org/2000/svg" viewBox="0 0 91 91"><defs><style>.a,.d{fill:none;}.a{stroke:#fff;stroke-width:3px;}.b{fill:#fff;fill-rule:evenodd;}.c{stroke:none;}</style></defs><g transform="translate(-675 -5948)"><g class="a" transform="translate(675 5948)"><circle class="c" cx="45.5" cy="45.5" r="45.5"/><circle class="d" cx="45.5" cy="45.5" r="44"/></g><path class="b" d="M106.39,115.877c3.86,1.979,3.166,2.164,3.166,9.653v.215l.043,0c1.408.123,2.445.234,3.323.326.852.091,1.526.162,2.05.2l-4.365-10.065A37.377,37.377,0,0,1,106.39,115.877ZM91.453,98.535l1.138,6.22a1.4,1.4,0,0,0,2.752-.505L94.2,98.031a1.4,1.4,0,1,0-2.75.5ZM85.769,109.1a1.4,1.4,0,0,0,1.634-2.277l-3.481-2.485a1.4,1.4,0,1,0-1.634,2.279Zm24.907,14.055a.6.6,0,1,0,.589.6A.593.593,0,0,0,110.675,123.151Zm.175-3.85a.6.6,0,1,0,.588.6A.593.593,0,0,0,110.851,119.3Zm.764,2.133a.6.6,0,1,0,.589.6A.593.593,0,0,0,111.615,121.434Zm.932,2.479a.6.6,0,1,0,.589.6A.594.594,0,0,0,112.547,123.913Zm7.566-14.675c-.45-.1-.922.569-1.056,1.5s.125,1.768.574,1.871.923-.569,1.056-1.5S120.562,109.34,120.112,109.238Zm-1.712,9.53c-.456-.064-.932.636-1.065,1.567s.128,1.738.584,1.8.931-.636,1.064-1.565S118.856,118.834,118.4,118.768Zm-7.891-11.7c.479.379.012,1.256-1.043,1.96s-2.3.967-2.778.588-.012-1.257,1.043-1.96S110.03,106.685,110.509,107.064Zm-7.828,20.728c-.392-.24-1.108.215-1.6,1.017s-.571,1.646-.179,1.885,1.108-.215,1.6-1.016S103.074,128.033,102.681,127.792Zm2.586-4.047c-.372-.272-1.073.157-1.563.959s-.586,1.672-.214,1.942,1.072-.156,1.563-.957S105.64,124.017,105.267,123.745Zm-5.348,8.073c-.392-.24-1.108.216-1.6,1.017s-.57,1.646-.178,1.885,1.108-.215,1.6-1.017S100.312,132.058,99.919,131.818ZM84.6,123.745c.374-.272,1.072.157,1.563.959s.586,1.672.214,1.942-1.072-.156-1.563-.957S84.226,124.017,84.6,123.745Zm5.348,2.906c.392-.24,1.108.215,1.6,1.016s.571,1.646.178,1.886-1.107-.215-1.6-1.016S89.554,126.891,89.946,126.652ZM84.6,128.913c.374-.272,1.072.156,1.563.959s.586,1.671.214,1.943-1.072-.157-1.563-.958S84.226,129.184,84.6,128.913Zm5.348,2.905c.392-.24,1.108.216,1.6,1.017s.571,1.646.178,1.885-1.107-.215-1.6-1.017S89.554,132.058,89.946,131.818ZM96.654,115.5c.038.46-.695.832-1.634.832s-1.731-.372-1.768-.832.694-.833,1.634-.833S96.617,115.039,96.654,115.5Zm-5.271,3.043c0,.46-.762.833-1.7.833s-1.7-.372-1.7-.833.762-.831,1.7-.831S91.383,118.083,91.383,118.542Zm10.983.125c0,.46-.76.832-1.7.832s-1.7-.372-1.7-.832.762-.832,1.7-.832S102.366,118.206,102.366,118.666Zm-5.615-.079c.056.458-.661.858-1.6.894s-1.746-.306-1.8-.764.661-.858,1.6-.894S96.7,118.129,96.752,118.587Zm-.007,2.9c.037.459-.695.832-1.635.832s-1.73-.373-1.768-.832.693-.833,1.633-.833S96.706,121.031,96.745,121.491Zm12.84,7c.1,6.081.066,4.845-7.343,8.826-8.6,4.617-6.029,4.617-14.625,0-8.428-4.529-7.312-2.3-7.312-11.785s-1.116-7.256,7.312-11.785c5.918-3.178,6.545-4.169,9.166-2.971.76-.94,1.834-2.16,3.256-3.953,6.069-7.64,3.711-6.624,13.432-5.784,9.534.825,7.627-.776,11.377,7.933s3.895,6.223-2.055,13.715c-6.022,7.581-3.751,6.642-13.209,5.8ZM99.234,112.08c.4.227.843.476,1.328.745l6.551.517,3.794.276.039-.017,7.871-9.467c-.473-.04-1.114-.078-1.939-.127-1.089-.064-2.4-.142-3.642-.248-1.408-.123-2.445-.234-3.323-.327a11.771,11.771,0,0,0-3.443-.17,11.781,11.781,0,0,0-2.242,2.618c-.536.7-1.169,1.533-2.048,2.639-.775.976-1.619,1.982-2.321,2.816C99.628,111.61,99.419,111.859,99.234,112.08Zm13.861,3.028,4.35,10.025c.312-.392.693-.891,1.161-1.506.537-.7,1.169-1.533,2.048-2.639.775-.977,1.619-1.982,2.321-2.816a12.4,12.4,0,0,0,1.795-2.335,13.236,13.236,0,0,0-1.223-3.072c-.463-1.03-1-2.224-1.211-2.713s-.709-1.7-1.139-2.746c-.244-.594-.45-1.093-.624-1.505-.645.932-1.817,2.179-3.627,4.457C114.989,112.724,113.967,114.228,113.1,115.108Zm-18.184,9.178h.041l10.974-5.581c-.418-.223-.992-.512-1.732-.883-.974-.491-2.147-1.08-3.245-1.67-1.246-.67-2.154-1.181-2.923-1.614a11.765,11.765,0,0,0-3.1-1.519,11.724,11.724,0,0,0-3.095,1.519c-.77.433-1.68.944-2.925,1.614-1.1.59-2.271,1.179-3.246,1.67-.643.323-1.162.584-1.56.792l7.43,3.919Zm1.42,2.233.03,10.928c.443-.236.99-.545,1.663-.923.77-.433,1.678-.945,2.923-1.614,1.1-.59,2.271-1.181,3.245-1.67a12.379,12.379,0,0,0,2.572-1.435,13.212,13.212,0,0,0,.092-3.3c-.018-1.129-.04-2.439-.04-2.971s.022-1.843.04-2.971c.01-.642.021-1.183.023-1.63-.962.6-2.531,1.283-5.093,2.659C99.014,125.079,97.48,126.056,96.332,126.52Zm-2.695,11-.031-10.97c-1.156-.452-2.7-1.438-5.533-2.963-2.616-1.4-4.17-2.071-5.094-2.661,0,.446.012.988.022,1.632.019,1.128.041,2.439.041,2.971s-.022,1.843-.041,2.971a13.267,13.267,0,0,0,.093,3.3,12.323,12.323,0,0,0,2.571,1.435c.976.489,2.148,1.079,3.246,1.67,1.245.669,2.154,1.181,2.925,1.614.745.42,1.336.752,1.8,1Z" transform="translate(619.493 5874.196)"/></g></svg>