<svg xmlns="http://www.w3.org/2000/svg" viewBox="0 0 60.325 42.159"><defs><style>.a{fill:#fff;}</style></defs><path class="a" d="M60.224,38.394A7.078,7.078,0,0,0,62.76,32.91a7.266,7.266,0,1,0-14.533,0,7.078,7.078,0,0,0,2.536,5.484,11.265,11.265,0,0,0-3.633,2.879,15.76,15.76,0,0,0-5.347-3.633,10.077,10.077,0,1,0-11.242,0,14.535,14.535,0,0,0-5.347,3.633,10.751,10.751,0,0,0-3.633-2.879A7.078,7.078,0,0,0,24.1,32.91a7.266,7.266,0,1,0-14.533,0A7.078,7.078,0,0,0,12.1,38.394,10.968,10.968,0,0,0,6,48.129v3.839l.686.411c2.4,1.645,6.1,2.536,10.146,2.536a24.529,24.529,0,0,0,3.976-.343v2.673l.617.411c3.359,2.331,8.843,3.7,14.738,3.7s11.311-1.371,14.738-3.7l.617-.411V54.572a24.529,24.529,0,0,0,3.976.343,19.126,19.126,0,0,0,10.146-2.536l.686-.411V48.129A10.968,10.968,0,0,0,60.224,38.394Zm3.153,12a17.475,17.475,0,0,1-7.883,1.645,23.865,23.865,0,0,1-3.976-.343A15.6,15.6,0,0,0,49.05,43.6a7.8,7.8,0,0,1,6.444-3.359,7.929,7.929,0,0,1,7.883,7.883ZM36.162,58.48c-4.936,0-9.46-1.028-12.476-2.742V51.9a12.476,12.476,0,1,1,24.953,0v3.839C45.623,57.451,41.1,58.48,36.162,58.48ZM8.948,48.129A7.875,7.875,0,0,1,23.275,43.6a15.408,15.408,0,0,0-2.468,8.089,24.529,24.529,0,0,1-3.976.343,17.475,17.475,0,0,1-7.883-1.645V48.129Zm3.5-15.218a4.319,4.319,0,1,1,4.319,4.319A4.3,4.3,0,0,1,12.444,32.91ZM43.36,29.277a7.2,7.2,0,1,1-7.2-7.129A7.2,7.2,0,0,1,43.36,29.277Zm7.815,3.633a4.319,4.319,0,1,1,4.319,4.319A4.3,4.3,0,0,1,51.175,32.91Z" transform="translate(-6 -19.2)"/></svg>