<svg xmlns="http://www.w3.org/2000/svg" viewBox="0 0 57.5 54.541"><defs><style>.a{fill:#fff;}</style></defs><g transform="translate(0 0)"><path class="a" d="M30.808,32.192l8.083-2.874,8.083,2.874-.236-8.575,5.231-6.8-8.229-2.426L38.892,7.316l-4.85,7.076-8.229,2.426,5.231,6.8Zm-.352-13.866,5.307-1.565L38.891,12.2l3.127,4.564,5.307,1.565-3.374,4.385.152,5.531L38.89,26.389l-5.213,1.853.152-5.531Z" transform="translate(-12.516 -7.316)"/><path class="a" d="M82.682,39.094l-6.856-2.021-4.041-5.9-4.041,5.9-6.856,2.021,4.359,5.666-.2,7.145,6.735-2.395L78.52,51.9l-.2-7.145Zm-17,1.558,3.842-1.133,2.264-3.3,2.264,3.3,3.841,1.133-2.442,3.174.111,4-3.773-1.342-3.773,1.342.11-4Z" transform="translate(-25.182 -15.933)"/><path class="a" d="M21.6,48.064l-5.223-1.54L13.3,42.033l-3.078,4.491L5,48.064,8.32,52.38l-.149,5.443L13.3,56l5.13,1.825-.149-5.443ZM8.87,49.321l2.788-.822L13.3,46.1l1.643,2.4,2.788.822-1.773,2.3.08,2.906L13.3,53.557l-2.738.974.08-2.906Z" transform="translate(-5 -19.853)"/><path class="a" d="M47.273,73.545V48.256a2.274,2.274,0,1,0-4.549,0V73.545a2.274,2.274,0,0,0,4.549,0Z" transform="translate(-18.623 -21.279)"/><path class="a" d="M78.933,78.925V67.284a2.274,2.274,0,0,0-4.549,0V78.925a2.274,2.274,0,0,0,4.549,0Z" transform="translate(-30.055 -28.15)"/><path class="a" d="M18.983,80.982v-8a2.274,2.274,0,1,0-4.549,0v8a2.274,2.274,0,0,0,4.549,0Z" transform="translate(-8.407 -30.207)"/></g></svg>