<svg xmlns="http://www.w3.org/2000/svg" viewBox="0 0 63 54.017"><defs><style>.a{fill:#fff;stroke:#fff;stroke-width:0.5px;}</style></defs><g transform="translate(0.25 0.25)"><path class="a" d="M62.3,25.716a21.217,21.217,0,0,0-42.431-.287,15.113,15.113,0,0,0-3.631-.382A16.436,16.436,0,0,0-.2,41.484a16.77,16.77,0,0,0,3.058,9.652L.66,56.87l6.594-1.625c3.249,2.58,7.741,2.771,9.079,2.771a16.3,16.3,0,0,0,16.055-12.9,20.753,20.753,0,0,0,8.792,1.911c1.72,0,7.55-.287,11.755-3.536L61.153,45.5l-2.867-7.263A20.819,20.819,0,0,0,62.3,25.716ZM16.237,56.583c-2.58,0-6.116-.669-8.41-2.58l-.287-.287L2.954,54.863l1.529-4.014L4.2,50.563a14.657,14.657,0,0,1-3.058-9.079,15.029,15.029,0,0,1,15-15,15.125,15.125,0,0,1,3.631.478A21.186,21.186,0,0,0,30.859,44.446,14.7,14.7,0,0,1,16.237,56.583ZM58.764,43.4l-6.307-1.529-.287.287c-2.963,2.58-7.645,3.44-11.086,3.44A19.83,19.83,0,1,1,60.866,25.716a19.363,19.363,0,0,1-4.014,11.946l-.287.287Z" transform="translate(0.2 -4.5)"/><rect class="a" width="26.185" height="1.433" transform="translate(28.192 24.178)"/><rect class="a" width="15.673" height="1.433" transform="translate(33.448 30.485)"/><rect class="a" width="32.206" height="1.433" transform="translate(25.229 17.871)"/><rect class="a" width="24.082" height="1.433" transform="translate(29.243 11.659)"/><path class="a" d="M21.93,42.883a1.926,1.926,0,0,0,.287-1.051,1.96,1.96,0,0,0-2.007-2.007H17.248a6.4,6.4,0,0,0,.669-2.963V36a2.1,2.1,0,0,0-4.2,0,5,5,0,0,1-1.147,3.249l-.382.478H8.36v1.433h4.587l.86-1.051a6.592,6.592,0,0,0,1.433-4.2.669.669,0,0,1,1.338,0v.86a5.759,5.759,0,0,1-.765,2.771l-.956,1.625h5.447a.617.617,0,0,1,.573.573.653.653,0,0,1-.669.669H18.777v1.433h2.1a.669.669,0,0,1,0,1.338H18.872V46.61h1.433a.669.669,0,0,1,0,1.338H18.872v1.433h.669a.669.669,0,0,1,0,1.338h-4.3a1.212,1.212,0,0,1-.573-.1l-.956-.478a3.052,3.052,0,0,0-1.338-.287H7.5V51.2h4.587a2.249,2.249,0,0,1,.765.191l.956.478a2.545,2.545,0,0,0,1.147.287h4.3a2.121,2.121,0,0,0,2.1-2.1,2.827,2.827,0,0,0-.191-.956,2.262,2.262,0,0,0,1.051-1.816,2.178,2.178,0,0,0-.287-1.051,1.929,1.929,0,0,0,.86-1.72A2.128,2.128,0,0,0,21.93,42.883Z" transform="translate(-0.141 -5.804)"/></g></svg>