<svg xmlns="http://www.w3.org/2000/svg" viewBox="0 0 57 56.926"><defs><style>.a{fill:#fff;fill-rule:evenodd;}</style></defs><path class="a" d="M54.765,27.407a4.352,4.352,0,0,1-2.247,3.8c-.064.035-.128.069-.193.1l-.026.013c-.077.037-.156.072-.235.1l-.049.019q-.1.04-.206.076l-.043.015a4.36,4.36,0,0,1-.519.136l-.016,0c-.078.015-.157.028-.237.038l-.059.008q-.1.012-.2.02l-.065.005c-.086.005-.173.008-.26.008-.068,0-.135,0-.2-.005l-.081-.005-.113-.009-.108-.011-.072-.009-.136-.02h0a4.392,4.392,0,0,1-2.841-1.783l-.033-.046c-.021-.031-.042-.062-.062-.093l-.047-.073-.052-.086-.049-.086-.045-.081c-.017-.032-.034-.065-.051-.1s-.026-.05-.038-.075q-.039-.081-.074-.164c-.013-.031-.025-.062-.038-.094s-.024-.059-.035-.089-.026-.072-.038-.108-.017-.048-.025-.073q-.019-.06-.037-.12a4.328,4.328,0,0,1-.177-1.224V24.633h8.718ZM51.984,33.8V54.7H22.994V37.835a1.117,1.117,0,0,0-1.118-1.115H10.923a1.117,1.117,0,0,0-1.118,1.115V54.7H5.052V33.806l.038.008q.151.035.3.063l.077.014c.1.016.192.031.289.043l.089.011c.1.011.191.019.287.026l.088.007c.123.007.246.011.371.011.1,0,.2,0,.3-.008l.076,0c.089-.005.177-.012.264-.02l.117-.013.143-.018a6.6,6.6,0,0,0,4.441-2.661L12,31.172c.024-.034.049-.068.072-.1.023.035.048.069.072.1l.066.093a6.6,6.6,0,0,0,4.441,2.661l.143.018.117.013c.088.009.176.015.264.02l.076,0c.1,0,.2.008.3.008s.2,0,.3-.008l.076,0c.089-.005.177-.012.264-.02l.117-.013.143-.018a6.6,6.6,0,0,0,4.441-2.661l.066-.093c.024-.034.049-.068.072-.1.023.035.048.069.072.1l.066.093A6.6,6.6,0,0,0,27.6,33.926l.143.018.117.013c.088.009.176.015.264.02l.076,0c.1,0,.2.008.3.008s.2,0,.3-.008l.076,0c.089-.005.177-.012.264-.02l.117-.013.143-.018a6.6,6.6,0,0,0,4.441-2.661l.066-.093c.024-.034.049-.068.072-.1.023.035.048.069.072.1l.066.093a6.6,6.6,0,0,0,4.441,2.661l.143.018.117.013c.088.009.176.015.264.02l.076,0c.1,0,.2.008.3.008s.2,0,.3-.008l.076,0c.089-.005.177-.012.264-.02l.117-.013.143-.018a6.6,6.6,0,0,0,4.44-2.66l.069-.1c.024-.034.048-.067.071-.1.023.034.047.067.071.1l.069.1a6.6,6.6,0,0,0,4.44,2.66l.143.018.117.013c.088.009.176.015.264.02l.076,0c.1,0,.2.008.3.008.126,0,.252,0,.376-.012l.093-.007c.1-.007.194-.015.29-.026l.092-.012q.15-.019.3-.045l.071-.013c.115-.022.229-.046.342-.073l.017,0ZM12.041,54.7h8.718V38.951H12.041ZM2.235,24.633h8.718v2.774a4.331,4.331,0,0,1-.176,1.22q-.019.064-.039.127l-.022.064c-.013.038-.026.077-.041.115s-.02.052-.031.077c-.018.046-.037.092-.057.138s-.038.086-.058.129c-.013.027-.027.054-.04.08s-.032.062-.048.093l-.047.084-.048.083-.054.088-.045.069c-.021.032-.042.064-.063.1l-.03.043A4.392,4.392,0,0,1,7.311,31.7h0l-.136.02-.073.009-.108.011-.113.009-.081.005c-.067,0-.135.005-.2.005-.086,0-.172,0-.257-.008l-.065-.005c-.066,0-.133-.011-.2-.019l-.062-.008q-.11-.015-.219-.035l-.033-.006a4.367,4.367,0,0,1-.507-.131l-.05-.017q-.093-.031-.185-.067l-.072-.028c-.056-.023-.112-.048-.168-.073L4.71,31.33c-.069-.033-.136-.068-.2-.1a4.353,4.353,0,0,1-2.271-3.818ZM18.261,31.7l-.136.02-.073.009-.108.011-.113.009-.081.005c-.067,0-.135.005-.2.005s-.135,0-.2-.005l-.081-.005-.113-.009-.108-.011-.073-.009-.136-.02h0a4.392,4.392,0,0,1-2.843-1.785l-.03-.043c-.022-.031-.043-.063-.063-.1l-.045-.069-.054-.088-.048-.083L13.7,29.45c-.016-.031-.032-.062-.048-.093s-.027-.053-.04-.08c-.02-.042-.039-.085-.058-.129s-.039-.091-.057-.138c-.01-.026-.021-.051-.031-.077s-.027-.076-.041-.115l-.022-.064c-.014-.042-.027-.084-.039-.127a4.331,4.331,0,0,1-.176-1.22V24.633h8.718v2.774a4.329,4.329,0,0,1-.176,1.22q-.019.064-.039.127l-.022.064c-.013.038-.026.077-.041.115s-.02.052-.031.077c-.018.046-.037.092-.057.138s-.038.086-.058.129c-.013.027-.027.054-.04.08s-.032.062-.048.093l-.047.084-.048.083-.054.088-.045.069c-.021.032-.042.064-.063.1l-.03.043A4.392,4.392,0,0,1,18.264,31.7Zm10.953,0-.136.02-.073.009-.108.011-.113.009-.081.005c-.067,0-.135.005-.2.005s-.135,0-.2-.005l-.081-.005-.113-.009-.108-.011-.073-.009-.136-.02h0a4.392,4.392,0,0,1-2.843-1.785l-.03-.043c-.022-.031-.043-.063-.063-.1l-.045-.069-.054-.088-.048-.083-.047-.084c-.016-.031-.032-.062-.048-.093s-.027-.053-.04-.08c-.02-.042-.039-.085-.058-.129s-.039-.091-.057-.138c-.01-.026-.021-.051-.031-.077s-.027-.076-.041-.115l-.022-.064q-.02-.063-.039-.127a4.331,4.331,0,0,1-.176-1.22V24.633h8.718v2.774a4.331,4.331,0,0,1-.176,1.22q-.019.064-.039.127l-.022.064c-.013.038-.026.077-.041.115s-.02.052-.031.077c-.018.046-.037.092-.057.138s-.038.086-.058.129c-.013.027-.027.054-.04.08s-.032.062-.048.093l-.047.084-.048.083-.054.088-.045.069c-.021.032-.042.064-.063.1l-.03.043A4.392,4.392,0,0,1,29.217,31.7Zm14.6-4.291a4.331,4.331,0,0,1-.176,1.22c-.013.042-.025.085-.039.127-.007.022-.014.043-.022.064-.013.038-.026.077-.041.115s-.02.052-.031.077c-.018.046-.037.092-.057.138s-.038.086-.058.129c-.013.027-.027.054-.04.08s-.032.062-.048.093l-.047.084-.048.083-.054.088-.045.069c-.021.032-.042.064-.063.1l-.03.043A4.392,4.392,0,0,1,40.17,31.7h0l-.136.02-.072.009-.108.011-.113.009-.081.005c-.067,0-.135.005-.2.005s-.135,0-.2-.005l-.081-.005-.113-.009-.108-.011-.072-.009c-.046-.006-.091-.012-.136-.02h0a4.392,4.392,0,0,1-2.843-1.785l-.03-.043c-.022-.031-.043-.063-.063-.1l-.045-.069q-.028-.044-.054-.088l-.048-.083-.047-.084c-.016-.031-.032-.062-.048-.093s-.027-.053-.04-.08c-.02-.042-.039-.085-.058-.129s-.039-.091-.057-.138c-.01-.026-.021-.051-.031-.077s-.027-.076-.041-.115c-.007-.021-.015-.043-.022-.064q-.021-.063-.039-.127a4.329,4.329,0,0,1-.176-1.22V24.633h8.718ZM7.356,14.838H49.539l4.4,7.564H3.04Zm9.794-2.231h22.7v-2.17H17.15Zm-3.914-4.4H43.876V2.231H13.235ZM57,23.508a1.119,1.119,0,0,0-.008-.124c0-.012,0-.024-.005-.036q-.008-.051-.02-.1c0-.011-.005-.022-.008-.033a1.072,1.072,0,0,0-.041-.121v0a1.078,1.078,0,0,0-.061-.122l0-.01-5.7-9.8a1.118,1.118,0,0,0-.966-.555h-8.1v-2.17h2.908a1.117,1.117,0,0,0,1.118-1.115V1.115A1.117,1.117,0,0,0,44.994,0H12.118A1.117,1.117,0,0,0,11,1.115V9.322a1.117,1.117,0,0,0,1.118,1.115h2.8v2.17H6.706a1.118,1.118,0,0,0-.971.564l-5.588,9.8,0,.007a1.105,1.105,0,0,0-.059.122l-.006.017a1.107,1.107,0,0,0-.036.11l-.009.034q-.012.05-.02.1c0,.011,0,.021,0,.032A1.123,1.123,0,0,0,0,23.518v3.89A6.573,6.573,0,0,0,2.817,32.8V55.811a1.117,1.117,0,0,0,1.118,1.115H53.1a1.117,1.117,0,0,0,1.118-1.115V32.772A6.572,6.572,0,0,0,57,27.407v-3.89h0s0-.006,0-.009ZM29.618,48.29H45.645v-9.34H29.618ZM46.763,36.72H28.5a1.117,1.117,0,0,0-1.118,1.115v11.57A1.117,1.117,0,0,0,28.5,50.521H46.763a1.117,1.117,0,0,0,1.118-1.115V37.835a1.117,1.117,0,0,0-1.118-1.115Z" transform="translate(0 0)"/></svg>