<svg xmlns="http://www.w3.org/2000/svg" viewBox="0 0 42.667 53.542"><defs><style>.a{fill:#fff;}</style></defs><path class="a" d="M21.133,24.113a7.654,7.654,0,0,0,7.653-7.653H21.133V8.807a7.653,7.653,0,1,0,0,15.306ZM19.46,10.719v7.415h7.415a5.98,5.98,0,1,1-7.415-7.415Z" transform="translate(-7.641 -1.439)"/><path class="a" d="M23.605,7.83v7.653h7.653A7.654,7.654,0,0,0,23.605,7.83Zm1.673,1.912a6.006,6.006,0,0,1,4.068,4.068H25.278Z" transform="translate(-9.295 -1.279)"/><rect class="a" width="10.591" height="3.461" transform="translate(24.686 7.946)"/><rect class="a" width="10.591" height="3.461" transform="translate(24.686 17.972)"/><rect class="a" width="10.591" height="3.461" transform="translate(24.686 12.959)"/><path class="a" d="M23.009,33.329l-1.3-1.127-1.092,1.327-2.634,3.2-.289-.281-1.232-1.2L15.3,36.515l-1.05,1.139-1.1,1.2,1.168,1.135,2.766,2.69,1.3,1.267,1.155-1.4,4.833-5.873,1.035-1.258-1.23-1.068Zm-4.764,8.149-2.766-2.69,1.05-1.139L18.121,39.2l3.79-4.605,1.166,1.013Z" transform="translate(-7.586 -5.262)"/><rect class="a" width="17.474" height="1.673" transform="translate(18.467 30.463)"/><rect class="a" width="17.474" height="1.673" transform="translate(18.467 33.398)"/><path class="a" d="M23.009,46.039l-1.3-1.127-1.092,1.327-2.634,3.2-.289-.281-1.232-1.2L15.3,49.225l-1.05,1.139-1.1,1.2L14.313,52.7l2.766,2.69,1.3,1.267,1.155-1.4,4.833-5.873,1.035-1.258-1.23-1.068Zm-4.764,8.149L15.478,51.5l1.05-1.139,1.593,1.549,3.79-4.605,1.166,1.013Z" transform="translate(-7.586 -7.338)"/><rect class="a" width="17.474" height="1.673" transform="translate(18.467 41.096)"/><rect class="a" width="17.474" height="1.673" transform="translate(18.467 44.031)"/><path class="a" d="M49.167,6.556,42.611,0H6.5V53.543H49.167ZM47.494,51.869H8.173V1.673H41.918l5.576,5.576Z" transform="translate(-6.5)"/></svg>