<svg xmlns="http://www.w3.org/2000/svg" viewBox="0 0 74.211 96.077"><defs><style>.a{fill:#fff;stroke:#028c9b;stroke-width:2px;}.b{fill:#028c9b;}</style></defs><g transform="translate(11 19.017)"><path class="a" d="M49.746,3.244l-36.1,6.64v51.8c0,3.987,1.786,8.293,5.318,12.8A65.9,65.9,0,0,0,32.136,86.637a129.732,129.732,0,0,0,17.61,10.551A129.121,129.121,0,0,0,67.36,86.637,65.63,65.63,0,0,0,80.528,74.491c3.535-4.516,5.327-8.816,5.327-12.8V9.884Z" transform="translate(-23.644 -21.244)"/><path class="b" d="M47,28H39a3,3,0,0,0-3,2.62l-2.33-2.33A1,1,0,0,0,33,28a3,3,0,0,1-3-3V23a3,3,0,0,0-6,0v6.18A3,3,0,0,0,23,29H17a3,3,0,0,0-2.22,5,3,3,0,0,0,0,4,3,3,0,0,0,0,4A3,3,0,0,0,17,47H36.78A3,3,0,0,0,39,48h8a1,1,0,0,0,1-1V29A1,1,0,0,0,47,28ZM16,40a1,1,0,0,1,1-1h6a1,1,0,0,1,0,2H17A1,1,0,0,1,16,40Zm0-4a1,1,0,0,1,1-1h6a1,1,0,0,1,0,2H17A1,1,0,0,1,16,36Zm1-5h6a1,1,0,0,1,0,2H17a1,1,0,0,1,0-2ZM16,44a1,1,0,0,1,1-1h6a1,1,0,0,1,0,2H17A1,1,0,0,1,16,44Zm9.82,1a2.91,2.91,0,0,0-.6-3,3,3,0,0,0,0-4,3,3,0,0,0,.53-.81A7.45,7.45,0,0,0,32,40a1,1,0,0,0,0-2c-5.79,0-6-5.39-6-6V23a1,1,0,0,1,2,0v2a5,5,0,0,0,4.57,5L36,33.41V45ZM46,46H39a1,1,0,0,1-1-1V31a1,1,0,0,1,1-1h7Z"/><path class="b" d="M16,21a1,1,0,0,0,1-1V16h8a3,3,0,0,0,3-3V3a3,3,0,0,0-3-3H3A3,3,0,0,0,0,3V13a3,3,0,0,0,3,3h7.59l4.71,4.71A1,1,0,0,0,16,21Zm-1-6v2.59L11.71,14.3A1,1,0,0,0,11,14H3a1,1,0,0,1-1-1V3A1,1,0,0,1,3,2H25a1,1,0,0,1,1,1V13a1,1,0,0,1-1,1H16A1,1,0,0,0,15,15Z"/><path class="b" d="M45,2H31a1,1,0,0,0,0,2H45a1,1,0,0,1,1,1v8a1,1,0,0,1-1,1H40a1,1,0,0,0-.71.29L37,16.59V15a1,1,0,0,0-1-1H31a1,1,0,0,0,0,2h4v3a1,1,0,0,0,1.71.71L40.41,16H45a3,3,0,0,0,3-3V5A3,3,0,0,0,45,2Z"/><path class="b" d="M7,5a3,3,0,1,0,3,3A3,3,0,0,0,7,5ZM7,9A1,1,0,1,1,8,8,1,1,0,0,1,7,9Z"/><path class="b" d="M17,8a3,3,0,1,0-3,3A3,3,0,0,0,17,8ZM14,9a1,1,0,1,1,1-1A1,1,0,0,1,14,9Z"/><path class="b" d="M21,11a3,3,0,1,0-3-3A3,3,0,0,0,21,11Zm0-4a1,1,0,1,1-1,1A1,1,0,0,1,21,7Z"/></g></svg>