<svg xmlns="http://www.w3.org/2000/svg" xmlns:xlink="http://www.w3.org/1999/xlink" viewBox="0 0 92.211 114.076"><defs><style>.a{fill:#fff;stroke:#028c9b;stroke-width:2px;}.b{fill:#028c9b;}.c{filter:url(#a);}</style><filter id="a" x="0" y="0" width="92.211" height="114.076" filterUnits="userSpaceOnUse"><feOffset dy="3" input="SourceAlpha"/><feGaussianBlur stdDeviation="3" result="b"/><feFlood flood-opacity="0.161"/><feComposite operator="in" in2="b"/><feComposite in="SourceGraphic"/></filter></defs><g transform="translate(-142 -2824.983)"><g class="c" transform="matrix(1, 0, 0, 1, 142, 2824.98)"><path class="a" d="M49.746,3.244l-36.1,6.64v51.8c0,3.987,1.786,8.293,5.318,12.8A65.9,65.9,0,0,0,32.136,86.637a129.732,129.732,0,0,0,17.61,10.551A129.121,129.121,0,0,0,67.36,86.637,65.63,65.63,0,0,0,80.528,74.491c3.535-4.516,5.327-8.816,5.327-12.8V9.884Z" transform="translate(-3.64 3.77)"/></g><g transform="translate(164.2 2854)"><path class="b" d="M57.051,40.12a1.348,1.348,0,0,0-.587-1.112L52.912,36.58,46.465,26.406a1.346,1.346,0,0,0-1.138-.626H40.452l-1.078-4.225a1.347,1.347,0,0,0-1.305-1.015H32.641a1.347,1.347,0,0,0-1.306,1.015L30.26,25.78H19.576a1.347,1.347,0,0,0,0,2.695H37.95v9.06A1.347,1.347,0,0,0,39.3,38.882H51.506l2.85,1.949v7.412H53.063a5.863,5.863,0,0,0-11.332,0H33.595a5.864,5.864,0,0,0-11.333,0H19.577a1.347,1.347,0,1,0,0,2.695h2.6a5.873,5.873,0,0,0,11.51,0h7.958a5.873,5.873,0,0,0,11.51,0H55.7a1.347,1.347,0,0,0,1.347-1.348ZM33.041,25.78l.648-2.545h3.334l.649,2.545Zm7.6,2.694h3.941l4.888,7.713H40.645ZM27.93,52.943a3.181,3.181,0,1,1,3.177-3.18A3.183,3.183,0,0,1,27.93,52.943Zm19.468,0a3.181,3.181,0,1,1,3.177-3.18A3.183,3.183,0,0,1,47.4,52.943Z" transform="translate(-8.618 -12.865)"/><path class="b" d="M21.818,42.357a1.348,1.348,0,0,0-1.348-1.348H13.255a1.347,1.347,0,0,0,0,2.695H20.47A1.347,1.347,0,0,0,21.818,42.357Z" transform="translate(-5.686 -22.359)"/><path class="b" d="M1.652,54.339h9.739a1.347,1.347,0,1,0,0-2.695H1.652a1.347,1.347,0,1,0,0,2.695Z" transform="translate(-0.304 -27.292)"/><path class="b" d="M13.448,63.565A1.347,1.347,0,0,0,12.1,62.218H7.238a1.347,1.347,0,1,0,0,2.695H12.1A1.347,1.347,0,0,0,13.448,63.565Z" transform="translate(-2.895 -32.196)"/><path class="b" d="M38.246,40.248A1.347,1.347,0,0,0,36.9,41.595v2.361H34.537a1.347,1.347,0,1,0,0,2.695H36.9v2.362a1.347,1.347,0,1,0,2.695,0V46.651h2.361a1.347,1.347,0,1,0,0-2.695H39.593V41.595A1.347,1.347,0,0,0,38.246,40.248Z" transform="translate(-15.557 -22.006)"/><path class="b" d="M35.235,8.182a1.346,1.346,0,0,0-.242,1.889l2.315,3a1.347,1.347,0,1,0,2.131-1.647l-2.315-3A1.346,1.346,0,0,0,35.235,8.182Z" transform="translate(-16.263 -7.003)"/><path class="b" d="M58.884,8.424l-2.315,3A1.347,1.347,0,1,0,58.7,13.067l2.315-3a1.347,1.347,0,1,0-2.131-1.647Z" transform="translate(-26.27 -7.003)"/><path class="b" d="M47.411,7.573v3a1.347,1.347,0,1,0,2.695,0v-3a1.347,1.347,0,0,0-2.695,0Z" transform="translate(-22.153 -6.226)"/></g></g></svg>