<svg xmlns="http://www.w3.org/2000/svg" viewBox="0 0 74.211 96.077"><defs><style>.a{fill:#fff;stroke:#028c9b;stroke-width:2px;}.b{fill:#028c9b;}</style></defs><g transform="translate(-151 -1619.983)"><path class="a" d="M49.746,3.244l-36.1,6.64v51.8c0,3.987,1.786,8.293,5.318,12.8A65.9,65.9,0,0,0,32.136,86.637a129.732,129.732,0,0,0,17.61,10.551A129.121,129.121,0,0,0,67.36,86.637,65.63,65.63,0,0,0,80.528,74.491c3.535-4.516,5.327-8.816,5.327-12.8V9.884Z" transform="translate(138.356 1617.756)"/><path class="b" d="M48.433,12.215A2.756,2.756,0,0,0,46.533,11l-4.045-.877a2.866,2.866,0,0,0-2.973-2.485H35.47a2.8,2.8,0,0,0-2.583-1.657,3.452,3.452,0,0,0-.682.049l-3.9.731A2.962,2.962,0,0,0,25.724,5.1a2.843,2.843,0,0,0-1.267.292L20.412,7.2l-.146-.146a3.287,3.287,0,0,0-2.29-1.121,2.911,2.911,0,0,0-1.9.731L5.109,15.968a2.879,2.879,0,0,0-.39,4.191l8.626,9.406c-.341.292-.682.634-1.023.926-1.511,1.462-.341,4.24,4.289,10.039,2.29,2.924,4.825,5.653,5.7,6.628v.975a1.4,1.4,0,0,0,.341.877,1.174,1.174,0,0,0,.877.341H38.2a1.22,1.22,0,0,0,.877-.39,1.174,1.174,0,0,0,.341-.877l-.146-3.655,1.559-6.53c.1,0,.292.049.536.049h0a2.883,2.883,0,0,0,2.924-2.339l4.532-21.1A3.187,3.187,0,0,0,48.433,12.215ZM21.971,10.607V23.326l-1.218.682-2.68-12.183c-.049-.195-.1-.536.439-.634l3.509-.682C22.02,10.558,21.971,10.558,21.971,10.607Zm-9.649,2.924,3.314-1.462a.618.618,0,0,0,.049.292L18.56,25.471,17.2,26.2,12.03,14.213C11.932,14.067,11.835,13.726,12.322,13.531ZM25.383,26.2a15.617,15.617,0,0,0-.975-2.242V10.607c0-.195,0-.536.536-.536h3.9c0,.049-.049.146-.049.195ZM6.571,18.6c-.146-.146-.292-.39.1-.731l3.119-2.632h0l5.556,12.719c-.049.049-.1.049-.1.1Zm30.41,28.363H24.8v-.244a1.141,1.141,0,0,0-.341-.828C19.486,40.578,14.271,33.9,14.174,32.147c.682-.634,1.462-1.316,2.242-1.949l6.384-4c.487,1.17.926,2.68.634,3.509-.049.195-.195.39-.585.487l-.146.049-.195.1a1.892,1.892,0,0,0-.731,1.413c0,.877.536,1.754,1.754,2.68.634.487,1.8.975,5.848,1.072l9.113,1.949-1.559,6.579a.723.723,0,0,0-.049.341Zm9.454-32.993L41.9,35.12c-.049.292-.146.439-.536.439h-.146L27.039,32.537c-.195-.049-.536-.1-.439-.634l4.532-21.15c.049-.292.146-.439.536-.439h.146L46,13.336C46.192,13.385,46.533,13.433,46.435,13.969Z" transform="translate(160.405 1638.65)"/></g></svg>