<svg xmlns="http://www.w3.org/2000/svg" viewBox="0 0 74.211 96.077"><defs><style>.a{fill:#fff;stroke:#028c9b;stroke-width:2px;}.b{fill:#028c9b;}</style></defs><g transform="translate(-151 -151.983)"><path class="a" d="M49.746,3.244l-36.1,6.64v51.8c0,3.987,1.786,8.293,5.318,12.8A65.9,65.9,0,0,0,32.136,86.637a129.732,129.732,0,0,0,17.61,10.551A129.121,129.121,0,0,0,67.36,86.637,65.63,65.63,0,0,0,80.528,74.491c3.535-4.516,5.327-8.816,5.327-12.8V9.884Z" transform="translate(138.356 149.756)"/><path class="b" d="M-155.875-93.8h-20.283a5.045,5.045,0,0,0-5.042,5.042v40.8a5.045,5.045,0,0,0,5.042,5.042h20.283a5.045,5.045,0,0,0,5.042-5.042v-40.8A5.045,5.045,0,0,0-155.875-93.8Zm3.361,45.782a3.364,3.364,0,0,1-3.361,3.361h-20.283a3.364,3.364,0,0,1-3.361-3.361v-40.8a3.364,3.364,0,0,1,3.361-3.361h20.283a3.364,3.364,0,0,1,3.361,3.361Zm-2.2-37.9h-22.543a.792.792,0,0,0-.811.811v33.322a.792.792,0,0,0,.811.811h22.543a.792.792,0,0,0,.811-.811V-85.107A.829.829,0,0,0-154.716-85.919Zm-.869,33.322h-20.863V-84.238h20.921V-52.6Zm-13.561-36.046a.792.792,0,0,1,.811-.811h4.4a.792.792,0,0,1,.811.811.792.792,0,0,1-.811.811h-4.4A.791.791,0,0,1-169.146-88.642Zm3.071,38.248a2.7,2.7,0,0,0-2.666,2.666,2.7,2.7,0,0,0,2.666,2.666,2.7,2.7,0,0,0,2.666-2.666A2.7,2.7,0,0,0-166.075-50.394Zm0,3.651a.977.977,0,0,1-.985-.985.977.977,0,0,1,.985-.985.977.977,0,0,1,.985.985A.977.977,0,0,1-166.075-46.743ZM-173.9-66.157a7.588,7.588,0,0,0,2.086,3.651,14.4,14.4,0,0,0,5.332,3.3,1.13,1.13,0,0,0,.464.058,1.692,1.692,0,0,0,.522-.116,2.825,2.825,0,0,1,.406-.174c.522-.232,1.1-.464,1.623-.753a11.043,11.043,0,0,0,4.115-3.419,6.678,6.678,0,0,0,1.391-3.709v-6.606a1.129,1.129,0,0,0-1.1-1.217c-.116,0-.29-.058-.406-.058l-1.217-.174a11.872,11.872,0,0,1-4.52-2.144,1.189,1.189,0,0,0-1.681,0,12.581,12.581,0,0,1-6.085,2.376,1.143,1.143,0,0,0-1.217,1.275V-67.9A13.573,13.573,0,0,0-173.9-66.157Zm1.449-6.027V-73.4a12.744,12.744,0,0,0,6.433-2.55,15.632,15.632,0,0,0,5.042,2.318,11.606,11.606,0,0,0,1.391.232h.058v2.9h0v3.187a5.128,5.128,0,0,1-1.1,2.782,10.454,10.454,0,0,1-3.535,2.9c-.464.232-.985.464-1.507.7-.116.058-.174.058-.29.116a12.428,12.428,0,0,1-4.578-2.9,5.807,5.807,0,0,1-1.681-2.84,5.168,5.168,0,0,1-.174-1.275C-172.449-69.286-172.449-70.735-172.449-72.184Zm3.129,4.636a.774.774,0,0,1,0-1.159.774.774,0,0,1,1.159,0l1.043,1.043,3.245-3.245a.774.774,0,0,1,1.159,0,.774.774,0,0,1,0,1.159l-3.825,3.825a.744.744,0,0,1-.58.232.744.744,0,0,1-.579-.232Z" transform="translate(354.034 266.718)"/></g></svg>