<svg xmlns="http://www.w3.org/2000/svg" viewBox="0 0 17.567 13.946"><defs><style>.a{fill:#fff;}</style></defs><g transform="translate(0)"><path class="a" d="M68.4,53.7a3.1,3.1,0,1,0,3.1,3.1A3.119,3.119,0,0,0,68.4,53.7Zm0,5.561A2.457,2.457,0,1,1,70.861,56.8,2.456,2.456,0,0,1,68.4,59.261Z" transform="translate(-53.941 -45.962)"/><path class="a" d="M20.748,30c-4.742,0-7.329-1.035-7.329-1.574v-1.6a2.229,2.229,0,0,0,.453.237,7.963,7.963,0,0,0,1.272.431,23.385,23.385,0,0,0,5.6.6c.841,0,1.681-.043,2.5-.108a3.5,3.5,0,0,1,.28-.841,26.8,26.8,0,0,1-2.781.129,25.87,25.87,0,0,1-3.406-.216,13.668,13.668,0,0,1-2.2-.431c-1.121-.323-1.724-.69-1.724-.948v-1.6a2.23,2.23,0,0,0,.453.237,7.963,7.963,0,0,0,1.272.431,23.385,23.385,0,0,0,5.6.6,23.385,23.385,0,0,0,5.6-.6,7.964,7.964,0,0,0,1.272-.431,2.23,2.23,0,0,0,.453-.237v.776a3.678,3.678,0,0,1,.819.28V20.02h-.022c-.28-1.53-4.333-2.22-8.126-2.22-3.772,0-7.846.69-8.126,2.22H12.6v8.557h.022c.28,1.53,4.354,2.22,8.126,2.22a26.044,26.044,0,0,0,2.91-.151,5.147,5.147,0,0,1-.323-.8A19,19,0,0,1,20.748,30Zm0-11.381c4.742,0,7.329,1.035,7.329,1.574,0,.259-.6.625-1.724.948a13.668,13.668,0,0,1-2.2.431,25.87,25.87,0,0,1-3.406.216,25.87,25.87,0,0,1-3.406-.216,13.668,13.668,0,0,1-2.2-.431c-1.121-.323-1.724-.69-1.724-.948C13.419,19.675,16.006,18.619,20.748,18.619Zm-7.329,3.19v-.474a2.23,2.23,0,0,0,.453.237A7.964,7.964,0,0,0,15.143,22a23.385,23.385,0,0,0,5.6.6,23.385,23.385,0,0,0,5.6-.6,7.964,7.964,0,0,0,1.272-.431,2.23,2.23,0,0,0,.453-.237v1.6c0,.259-.6.625-1.724.948a13.668,13.668,0,0,1-2.2.431,25.869,25.869,0,0,1-3.406.216,25.869,25.869,0,0,1-3.406-.216,13.668,13.668,0,0,1-2.2-.431c-1.121-.323-1.724-.69-1.724-.948V21.809Z" transform="translate(-12.6 -17.8)"/><path class="a" d="M76.463,63.148h-.582v-.582a.366.366,0,1,0-.733,0v.582h-.582a.366.366,0,1,0,0,.733h.582v.582a.366.366,0,0,0,.733,0v-.582h.582a.366.366,0,0,0,0-.733Z" transform="translate(-60.922 -52.63)"/></g></svg>