<svg xmlns="http://www.w3.org/2000/svg" viewBox="0 0 13.568 13.663"><defs><style>.a{fill:#fff;}</style></defs><path class="a" d="M11.6,7.908l1.913-1.92a.388.388,0,0,0,.052-.085l.959-.965a1.3,1.3,0,0,0,0-1.842L12.81,1.384a1.279,1.279,0,0,0-1.835,0L9.933,2.461a.31.31,0,0,0-.051.069L8.051,4.361,4.959,1.27a.331.331,0,0,0-.459,0L1.43,4.34a.331.331,0,0,0,0,.459L4.521,7.89,2.483,9.928a.418.418,0,0,0-.116.2c-.008.057-.46,3.524-.46,3.524a.594.594,0,0,0,.1.393c.07.071.148.2.236.2h.053l3.47-.5c.1-.014.183-.171.27-.258.029-.029.9-.9,2.044-2.048L11.2,14.57a.336.336,0,0,0,.229.09.291.291,0,0,0,.229-.088L14.732,11.5a.33.33,0,0,0,0-.459Zm-.111-6.047a.573.573,0,0,1,.441-.194.64.64,0,0,1,.459.194L14.1,3.573a.639.639,0,0,1,0,.9l-.829.829L11.989,4.023a.288.288,0,0,0-.032-.039.3.3,0,0,0-.039-.032L10.657,2.69ZM2.118,4.57,4.73,1.958l.371.371L4.43,3a.331.331,0,0,0,0,.459.336.336,0,0,0,.229.088.292.292,0,0,0,.229-.088l.671-.671.353.353-.636.706a.33.33,0,0,0,0,.459.336.336,0,0,0,.229.088.292.292,0,0,0,.229-.088l.671-.671L7.592,4.82,4.98,7.431Zm8.053-1.412,1.077,1.077-7,7L3.174,10.155ZM2.626,13.332l.336-2.471L5.1,13Zm3.159-.565L4.709,11.691l7-7L12.783,5.77Zm5.646,1.116-2.9-2.9L11.14,8.367,12.367,9.6l-.688.688a.33.33,0,0,0,0,.459.336.336,0,0,0,.229.088.293.293,0,0,0,.229-.088l.688-.688.353.353-.688.688a.33.33,0,0,0,0,.459.335.335,0,0,0,.229.088.293.293,0,0,0,.229-.088l.688-.688.371.371Z" transform="translate(-1.337 -0.996)"/></svg>