<svg xmlns="http://www.w3.org/2000/svg" viewBox="0 0 15.786 17.745"><defs><style>.a{fill:#fff;}</style></defs><g transform="translate(0 0)"><path class="a" d="M41.9,35.561A1.034,1.034,0,0,0,40.87,34.6h-3.4a1.766,1.766,0,0,0-1.619,1.061q-.023.053-.043.108l-.07.19.143.144c.04.04.1.092.163.147v1.044l-.75,2.59h.746v1.552a.867.867,0,0,0,.866.866h2.614a1.305,1.305,0,0,0,1.286-1.1h.817a.987.987,0,0,0,.935-.877,26.678,26.678,0,0,0,.49-3.351A1.439,1.439,0,0,0,41.9,35.561Zm-4.425-.325h3.4a.4.4,0,0,1,.385.3h-.63a1.433,1.433,0,0,0-1.1.509A2.958,2.958,0,0,1,36.5,35.8,1.13,1.13,0,0,1,37.473,35.236Zm2.049,6.43H36.909a.23.23,0,0,1-.23-.23V39.247h-.536l.528-1.821.007-.776a3.281,3.281,0,0,0,1.43.315,4.3,4.3,0,0,0,1.09-.149,1.423,1.423,0,0,0-.008.152v2.758h.885a.817.817,0,0,0,.12.211v1.056A.672.672,0,0,1,39.523,41.665Zm1.1-2.492v-.9a.345.345,0,1,1,.69,0,.336.336,0,0,1-.031.142l-.149.321c-.108.23-.224.481-.309.671a.419.419,0,0,1-.087.145.141.141,0,0,1-.033,0H40.7S40.621,39.481,40.621,39.173Zm1.317,1.019c-.018.087-.092.369-.312.369h-.8v-.386a.764.764,0,0,0,.575-.515c.083-.187.2-.433.3-.66l.151-.324a.968.968,0,0,0,.089-.408.981.981,0,1,0-1.962,0v.823h-.161V36.968a.8.8,0,0,1,.8-.8h.989a.8.8,0,0,1,.8.8A25.692,25.692,0,0,1,41.938,40.192Z" transform="translate(-31.142 -29.643)"/><path class="a" d="M33.561,26.119V21.827a1.56,1.56,0,1,0-1.485-2.61L28.343,17.1a1.559,1.559,0,1,0-2.986.02l-3.7,2.143a1.561,1.561,0,1,0-1.48,2.576v4.272a1.561,1.561,0,1,0,1.449,2.6l3.721,2.142a1.56,1.56,0,1,0,3,.027l3.772-2.106a1.558,1.558,0,1,0,1.439-2.653Zm-.78-6.492a.8.8,0,0,1,1.089.292.8.8,0,0,1-.689,1.2.8.8,0,0,1-.4-1.487Zm-5.934-3.763a.8.8,0,1,1-.8.8A.8.8,0,0,1,26.847,15.864Zm-7.1,4.659a.792.792,0,0,1,.079-.6.8.8,0,1,1-.079.6Zm1.167,7.8a.8.8,0,1,1,.372-.484A.8.8,0,0,1,20.911,28.32Zm5.936,3.764a.8.8,0,1,1,.8-.8A.8.8,0,0,1,26.847,32.084Zm0-2.356a1.553,1.553,0,0,0-1.109.466L22.013,28.05c0-.006,0-.011.006-.016a1.555,1.555,0,0,0-1.076-1.9V21.814a1.553,1.553,0,0,0,1.08-1.881l3.73-2.163a1.555,1.555,0,0,0,2.2-.015l3.731,2.119A1.553,1.553,0,0,0,32.8,21.827V26.12a1.553,1.553,0,0,0-1.093,2.012l-3.73,2.082A1.554,1.554,0,0,0,26.847,29.727Zm6.333-1.3a.8.8,0,1,1,.8-.8A.8.8,0,0,1,33.18,28.427Z" transform="translate(-18.954 -15.101)"/><circle class="a" cx="0.441" cy="0.441" r="0.441" transform="translate(5.872 7.998)"/></g></svg>