<svg xmlns="http://www.w3.org/2000/svg" viewBox="0 0 35.228 33.855"><defs><style>.a{fill:#f50057;}.a,.b{fill-rule:evenodd;}.b{fill:#fff;}</style></defs><g transform="translate(-77 -13)"><path class="a" d="M47.338,36.2V51.985c0,.516.443.725,1.273.255S61.16,44.893,61.594,44.6s.293-.694-.255-1.018-13.072-7.537-13.492-7.637S47.338,35.687,47.338,36.2Z" transform="translate(41.465 -14.293)"/><path class="b" d="M9.388,11.433V26.706c0,.268.1.144-.255,0S1.251,19.757.987,19.578s-.1-1.091.255-1.527,7-6.369,7.382-6.618S9.388,10.975,9.388,11.433Zm5.373,18.024c.267-.156,12.972-7.449,13.21-7.588s.626-.2.509.255c-.1.4-2.022,10.606-2.036,10.946s-.758.71-1.337.607-9.5-3.27-9.926-3.5S14.356,29.694,14.761,29.457ZM27.8,15.793c-.256-.146-13-7.548-13.223-7.678s-.174.019.131-.229,10.172-3.616,10.5-3.6a1.179,1.179,0,0,1,1.166.971c.189.528,1.81,9.385,1.823,9.85s0,.908-.393.686ZM22.116,2.014H10.152c-.32,0-.784.531-.255,1.273a23.962,23.962,0,0,0,1.527,2.036c.421.443.528.661,1.527.255s8.863-2.912,9.165-3.054S22.116,2.014,22.116,2.014ZM.64,14.555,6.4,4.069c.154-.28.844-.431,1.238.39A23.966,23.966,0,0,1,8.688,6.778c.186.581.325.781-.512,1.461s-6.82,6.11-7.09,6.306a.327.327,0,0,1-.446.01ZM29.673,6.5l6.114,10.284c.164.275-.056.946-.964.869a23.964,23.964,0,0,1-2.531-.272c-.6-.135-.838-.117-1-1.183s-1.806-8.977-1.838-9.309a.327.327,0,0,1,.218-.389Zm.047,24.787,6.1-10.321c.163-.276-.056-.949-.96-.872a23.768,23.768,0,0,0-2.525.273c-.595.136-.836.117-1,1.188s-1.8,9.009-1.833,9.342a.329.329,0,0,0,.218.39ZM22.235,35.87H10.258c-.32,0-.785-.536-.255-1.283a24.18,24.18,0,0,1,1.529-2.053c.422-.447.529-.666,1.529-.257s8.871,2.936,9.175,3.079S22.235,35.87,22.235,35.87ZM.735,23.227,6.5,33.8c.154.283.845.435,1.238-.393a24.239,24.239,0,0,0,1.051-2.338c.186-.587.325-.788-.513-1.473s-6.826-6.16-7.1-6.358a.326.326,0,0,0-.447-.009Z" transform="translate(76.36 10.986)"/></g></svg>