<svg xmlns="http://www.w3.org/2000/svg" xmlns:xlink="http://www.w3.org/1999/xlink" viewBox="0 0 90.211 111.944"><defs><style>.a{fill:#fff;}.b{fill:#2a8cc7;}.c{filter:url(#a);}</style><filter id="a" x="0" y="0" width="90.211" height="111.944" filterUnits="userSpaceOnUse"><feOffset dy="3" input="SourceAlpha"/><feGaussianBlur stdDeviation="3" result="b"/><feFlood flood-opacity="0.161"/><feComposite operator="in" in2="b"/><feComposite in="SourceGraphic"/></filter></defs><g transform="translate(-79.644 -1803)"><g class="c" transform="matrix(1, 0, 0, 1, 79.64, 1803)"><path class="a" d="M49.746,3.244l-36.1,6.64v51.8c0,3.987,1.786,8.293,5.318,12.8A65.9,65.9,0,0,0,32.136,86.637a129.732,129.732,0,0,0,17.61,10.551A129.121,129.121,0,0,0,67.36,86.637,65.63,65.63,0,0,0,80.528,74.491c3.535-4.516,5.327-8.816,5.327-12.8V9.884Z" transform="translate(-4.64 2.76)"/></g><path class="b" d="M29.81,51.477v12a1.7,1.7,0,0,0,2.849,1.254l5.224-4.79,7.234,7.582a1.7,1.7,0,0,0,1.229.527,1.608,1.608,0,0,0,.169-.009,1.7,1.7,0,0,0,1.269-.784l24.182-38.3a1.7,1.7,0,0,0-1.878-2.55L21.723,39.358a1.7,1.7,0,0,0-.789,2.815Zm3.4,8.13V55.04l2.324,2.437ZM46.071,63.6,34.016,50.959,65.434,32.926Zm12.3-30.536L31.6,48.426,25.372,41.9Z" transform="translate(78 1808.658)"/></g></svg>