<svg xmlns="http://www.w3.org/2000/svg" viewBox="0 0 140.605 47"><defs><style>.a{fill:#a6a6a6;}.b{fill:#fff;}</style></defs><g transform="translate(0 0)"><path class="a" d="M129.408,0H11.2c-.431,0-.857,0-1.286,0-.36,0-.717.009-1.08.015A15.527,15.527,0,0,0,6.483.225,7.831,7.831,0,0,0,4.249.962a7.564,7.564,0,0,0-1.9,1.385,7.354,7.354,0,0,0-1.384,1.9A7.756,7.756,0,0,0,.228,6.488,15.267,15.267,0,0,0,.018,8.84C.007,9.2.006,9.562,0,9.922V37.081c.006.365.007.718.018,1.083a15.266,15.266,0,0,0,.211,2.352,7.74,7.74,0,0,0,.734,2.238,7.294,7.294,0,0,0,1.384,1.9,7.372,7.372,0,0,0,1.9,1.385,7.874,7.874,0,0,0,2.234.741,15.809,15.809,0,0,0,2.355.208c.363.008.72.013,1.08.013.43,0,.855,0,1.286,0H129.408c.422,0,.851,0,1.274,0,.358,0,.725,0,1.083-.013a15.6,15.6,0,0,0,2.35-.208,8,8,0,0,0,2.242-.741,7.376,7.376,0,0,0,1.9-1.385,7.514,7.514,0,0,0,1.388-1.9,7.761,7.761,0,0,0,.727-2.238,15.871,15.871,0,0,0,.218-2.352c0-.365,0-.718,0-1.083.009-.427.009-.851.009-1.285V11.2c0-.43,0-.857-.009-1.283,0-.36,0-.722,0-1.082a15.869,15.869,0,0,0-.218-2.352,7.776,7.776,0,0,0-.727-2.236,7.6,7.6,0,0,0-3.289-3.29,7.952,7.952,0,0,0-2.242-.737,15.327,15.327,0,0,0-2.35-.208C131.407.011,131.04,0,130.682,0c-.422,0-.851,0-1.274,0Z" transform="translate(0 0)"/><path d="M9.77,45.819c-.358,0-.707,0-1.063-.013a14.909,14.909,0,0,1-2.2-.192,6.914,6.914,0,0,1-1.947-.644,6.352,6.352,0,0,1-1.641-1.194,6.252,6.252,0,0,1-1.2-1.641,6.723,6.723,0,0,1-.638-1.947,14.586,14.586,0,0,1-.2-2.2c-.007-.248-.017-1.073-.017-1.073V9.769s.01-.812.017-1.051a14.535,14.535,0,0,1,.194-2.2,6.763,6.763,0,0,1,.639-1.953A6.314,6.314,0,0,1,2.916,2.923a6.539,6.539,0,0,1,1.648-1.2,6.842,6.842,0,0,1,1.943-.639A14.788,14.788,0,0,1,8.71.889L9.77.875H130.523L131.6.89a14.552,14.552,0,0,1,2.184.191,6.978,6.978,0,0,1,1.963.644,6.573,6.573,0,0,1,2.838,2.843,6.771,6.771,0,0,1,.629,1.937,15.265,15.265,0,0,1,.2,2.217c0,.333,0,.69,0,1.046.009.441.009.86.009,1.283V35.643c0,.427,0,.843-.009,1.263,0,.382,0,.732,0,1.092a14.964,14.964,0,0,1-.2,2.178,6.743,6.743,0,0,1-.634,1.962,6.439,6.439,0,0,1-1.193,1.628,6.36,6.36,0,0,1-1.644,1.2,6.888,6.888,0,0,1-1.96.646,14.737,14.737,0,0,1-2.2.192c-.344.008-.7.013-1.054.013l-1.274,0Z" transform="translate(0.153 0.153)"/><g transform="translate(11.717 10.246)"><path class="b" d="M27.358,21.408a5.815,5.815,0,0,1,2.769-4.879,5.952,5.952,0,0,0-4.69-2.535c-1.973-.207-3.886,1.181-4.891,1.181-1.025,0-2.573-1.16-4.24-1.126a6.245,6.245,0,0,0-5.256,3.205c-2.272,3.934-.577,9.717,1.6,12.9,1.089,1.557,2.362,3.3,4.027,3.235,1.63-.068,2.238-1.039,4.206-1.039,1.949,0,2.52,1.039,4.219,1,1.749-.028,2.851-1.564,3.9-3.136a12.88,12.88,0,0,0,1.784-3.634,5.619,5.619,0,0,1-3.43-5.169Z" transform="translate(-9.972 -7.801)"/><path class="b" d="M22.605,12.822a5.725,5.725,0,0,0,1.31-4.1,5.825,5.825,0,0,0-3.769,1.95A5.448,5.448,0,0,0,18.8,14.62,4.816,4.816,0,0,0,22.605,12.822Z" transform="translate(-8.428 -8.72)"/><g transform="translate(28.735 10.752)"><path class="b" d="M43.68,28.725H38.119l-1.336,3.944H34.427L39.7,18.078h2.448l5.268,14.591h-2.4Zm-4.986-1.82H43.1L40.93,20.5h-.061Z" transform="translate(-34.427 -17.835)"/><path class="b" d="M56.652,26.779c0,3.306-1.769,5.43-4.44,5.43a3.606,3.606,0,0,1-3.347-1.861h-.051v5.269H46.631V21.459h2.114v1.769h.04a3.774,3.774,0,0,1,3.387-1.881C54.872,21.348,56.652,23.482,56.652,26.779Zm-2.244,0c0-2.154-1.113-3.57-2.811-3.57-1.668,0-2.791,1.446-2.791,3.57,0,2.143,1.122,3.579,2.791,3.579,1.7,0,2.811-1.406,2.811-3.579Z" transform="translate(-32.292 -17.263)"/><path class="b" d="M66.617,26.779c0,3.306-1.769,5.43-4.44,5.43a3.606,3.606,0,0,1-3.347-1.861H58.78v5.269H56.6V21.459H58.71v1.769h.04a3.774,3.774,0,0,1,3.387-1.881C64.837,21.348,66.617,23.482,66.617,26.779Zm-2.244,0c0-2.154-1.113-3.57-2.811-3.57-1.668,0-2.791,1.446-2.791,3.57,0,2.143,1.122,3.579,2.791,3.579,1.7,0,2.811-1.406,2.811-3.579Z" transform="translate(-30.548 -17.263)"/><path class="b" d="M72.043,28.64c.162,1.447,1.567,2.4,3.488,2.4,1.841,0,3.165-.95,3.165-2.255,0-1.133-.8-1.811-2.69-2.275l-1.891-.456c-2.679-.647-3.923-1.9-3.923-3.933,0-2.518,2.194-4.247,5.309-4.247,3.083,0,5.2,1.729,5.268,4.247h-2.2c-.132-1.456-1.336-2.335-3.095-2.335s-2.963.889-2.963,2.184c0,1.032.769,1.639,2.649,2.1l1.608.395C79.759,25.172,81,26.375,81,28.509c0,2.73-2.174,4.44-5.633,4.44-3.236,0-5.421-1.67-5.562-4.309Z" transform="translate(-28.236 -17.871)"/><path class="b" d="M83.9,19.3v2.518h2.023v1.729H83.9v5.865c0,.911.405,1.336,1.294,1.336a6.822,6.822,0,0,0,.718-.051v1.719a6,6,0,0,1-1.213.1c-2.154,0-2.994-.809-2.994-2.872v-6.1H80.163V21.817h1.547V19.3Z" transform="translate(-26.424 -17.621)"/><path class="b" d="M86.065,26.781c0-3.347,1.971-5.45,5.045-5.45s5.047,2.1,5.047,5.45-1.952,5.45-5.047,5.45S86.065,30.138,86.065,26.781Zm7.867,0c0-2.3-1.052-3.651-2.822-3.651s-2.82,1.365-2.82,3.651c0,2.305,1.051,3.65,2.82,3.65s2.822-1.345,2.822-3.65Z" transform="translate(-25.391 -17.266)"/><path class="b" d="M96.186,21.459h2.083V23.27h.051a2.537,2.537,0,0,1,2.559-1.922,3.368,3.368,0,0,1,.748.081v2.042a3.053,3.053,0,0,0-.981-.132,2.2,2.2,0,0,0-2.275,2.448V32.1H96.186Z" transform="translate(-23.62 -17.263)"/><path class="b" d="M110.813,28.975c-.294,1.931-2.174,3.256-4.581,3.256-3.095,0-5.016-2.073-5.016-5.4s1.931-5.5,4.924-5.5c2.943,0,4.794,2.022,4.794,5.247v.748h-7.514v.132a2.771,2.771,0,0,0,2.862,3.013,2.407,2.407,0,0,0,2.457-1.5ZM103.432,25.8h5.318a2.558,2.558,0,0,0-2.609-2.7,2.693,2.693,0,0,0-2.709,2.7Z" transform="translate(-22.739 -17.266)"/></g></g></g><g transform="translate(41.627 9.423)"><path class="b" d="M35.428,12.265c0-2.274,1.209-3.678,3.158-3.678a2.8,2.8,0,0,1,2.916,2.43H40.417A1.8,1.8,0,0,0,38.586,9.6c-1.259,0-2.046,1.025-2.046,2.663s.787,2.658,2.051,2.658a1.757,1.757,0,0,0,1.827-1.292H41.5a2.736,2.736,0,0,1-2.911,2.308C36.642,15.938,35.428,14.534,35.428,12.265Z" transform="translate(-35.428 -7.921)"/><path class="b" d="M41.612,12.853a2.507,2.507,0,1,1,4.99,0,2.507,2.507,0,1,1-4.99,0Zm3.916,0c0-1.147-.515-1.818-1.419-1.818s-1.418.671-1.418,1.818.511,1.822,1.418,1.822S45.528,14,45.528,12.853Z" transform="translate(-34.348 -7.654)"/><path class="b" d="M47.05,10.211h1.005v.841h.078a1.584,1.584,0,0,1,1.579-.943,1.721,1.721,0,0,1,1.831,1.968V15.5H50.5V12.339c0-.85-.369-1.273-1.142-1.273a1.214,1.214,0,0,0-1.263,1.341v3.1H47.05Z" transform="translate(-33.394 -7.655)"/><path class="b" d="M54.221,10.108c1.19,0,1.968.554,2.07,1.487h-1c-.1-.388-.476-.636-1.068-.636s-1.026.277-1.026.69c0,.316.267.515.841.647l.879.2c1.006.234,1.478.666,1.478,1.444,0,1-.928,1.662-2.192,1.662s-2.079-.569-2.172-1.506h1.045a1.074,1.074,0,0,0,1.151.66c.651,0,1.113-.291,1.113-.714,0-.316-.248-.52-.778-.646l-.923-.214c-1.006-.238-1.472-.69-1.472-1.477C52.166,10.768,53.025,10.108,54.221,10.108Z" transform="translate(-32.522 -7.654)"/><path class="b" d="M56.865,9.691l1.22-1.671h1.224L57.944,9.691Zm.108.885h1.04v5.291h-1.04Z" transform="translate(-31.676 -8.02)"/><path class="b" d="M59.257,16.028h1.068c.088.384.53.632,1.235.632.87,0,1.385-.413,1.385-1.112V14.532h-.078a1.779,1.779,0,0,1-1.633.889c-1.351,0-2.186-1.044-2.186-2.628,0-1.613.845-2.672,2.2-2.672a1.834,1.834,0,0,1,1.662.933h.083v-.845h1v5.334c0,1.21-.948,1.978-2.444,1.978C60.223,17.52,59.368,16.928,59.257,16.028Zm3.707-3.241c0-1.054-.545-1.729-1.434-1.729s-1.4.675-1.4,1.729.5,1.73,1.4,1.73,1.434-.67,1.434-1.73Z" transform="translate(-31.294 -7.652)"/><path class="b" d="M69.14,15.486H68.133v-.841h-.083a1.586,1.586,0,0,1-1.6.943A1.718,1.718,0,0,1,64.63,13.63V10.195h1.046v3.163c0,.855.344,1.263,1.112,1.263a1.2,1.2,0,0,0,1.307-1.332V10.195H69.14Z" transform="translate(-30.321 -7.639)"/><path class="b" d="M74.4,14.072A2.148,2.148,0,0,1,72.105,15.6a2.4,2.4,0,0,1-2.444-2.731A2.44,2.44,0,0,1,72.1,10.108c1.472,0,2.36,1.006,2.36,2.667v.364H70.725V13.2a1.4,1.4,0,0,0,1.409,1.516,1.268,1.268,0,0,0,1.259-.641Zm-3.673-1.705H73.4A1.277,1.277,0,0,0,72.095,11a1.353,1.353,0,0,0-1.37,1.371Z" transform="translate(-29.441 -7.654)"/><path class="b" d="M74.977,8.437h1.044v7.356H74.977Z" transform="translate(-28.507 -7.946)"/><path class="b" d="M77.1,12.853a2.507,2.507,0,1,1,4.99,0,2.507,2.507,0,1,1-4.99,0Zm3.916,0c0-1.147-.515-1.818-1.419-1.818s-1.418.671-1.418,1.818.511,1.822,1.418,1.822S81.019,14,81.019,12.853Z" transform="translate(-28.137 -7.654)"/><path class="b" d="M89.5,14.072A2.148,2.148,0,0,1,87.208,15.6a2.4,2.4,0,0,1-2.444-2.731A2.44,2.44,0,0,1,87.2,10.108c1.472,0,2.36,1.006,2.36,2.667v.364H85.827V13.2a1.4,1.4,0,0,0,1.409,1.516,1.268,1.268,0,0,0,1.259-.641Zm-3.673-1.705H88.5A1.277,1.277,0,0,0,87.2,11a1.353,1.353,0,0,0-1.37,1.371Z" transform="translate(-26.798 -7.654)"/><path class="b" d="M90.039,10.211h1.005v.841h.078a1.584,1.584,0,0,1,1.579-.943,1.721,1.721,0,0,1,1.831,1.968V15.5H93.488V12.339c0-.85-.369-1.273-1.142-1.273a1.214,1.214,0,0,0-1.263,1.341v3.1H90.039Z" transform="translate(-25.871 -7.655)"/><path class="b" d="M102.2,14.072A2.148,2.148,0,0,1,99.9,15.6a2.4,2.4,0,0,1-2.444-2.731A2.44,2.44,0,0,1,99.9,10.108c1.472,0,2.36,1.006,2.36,2.667v.364H98.524V13.2a1.4,1.4,0,0,0,1.409,1.516,1.268,1.268,0,0,0,1.259-.641Zm-3.673-1.705H101.2A1.277,1.277,0,0,0,99.894,11a1.353,1.353,0,0,0-1.37,1.371Z" transform="translate(-24.576 -7.654)"/><path class="b" d="M102.776,8.437h1.044v7.356h-1.044Z" transform="translate(-23.642 -7.946)"/></g></svg>