<svg xmlns="http://www.w3.org/2000/svg" xmlns:xlink="http://www.w3.org/1999/xlink" viewBox="0 0 153.399 45.451"><defs><style>.a{fill:#a6a6a6;}.b,.i,.j{fill:#fff;}.c{fill:url(#a);}.d{fill:url(#b);}.e{fill:url(#c);}.f{fill:url(#d);}.g{opacity:0.2;}.h{opacity:0.12;}.i{opacity:0.25;}.j{stroke:#fff;stroke-miterlimit:10;stroke-width:0.2px;}</style><linearGradient id="a" x1="0.915" y1="6.632" x2="-0.376" y2="5.96" gradientUnits="objectBoundingBox"><stop offset="0" stop-color="#00a0ff"/><stop offset="0.007" stop-color="#00a1ff"/><stop offset="0.26" stop-color="#00beff"/><stop offset="0.512" stop-color="#00d2ff"/><stop offset="0.76" stop-color="#00dfff"/><stop offset="1" stop-color="#00e3ff"/></linearGradient><linearGradient id="b" x1="1.077" y1="17.2" x2="-1.307" y2="17.2" gradientUnits="objectBoundingBox"><stop offset="0" stop-color="#ffe000"/><stop offset="0.409" stop-color="#ffbd00"/><stop offset="0.775" stop-color="orange"/><stop offset="1" stop-color="#ff9c00"/></linearGradient><linearGradient id="c" x1="0.864" y1="10.839" x2="-0.499" y2="9.074" gradientUnits="objectBoundingBox"><stop offset="0" stop-color="#ff3a44"/><stop offset="1" stop-color="#c31162"/></linearGradient><linearGradient id="d" x1="-0.186" y1="13.614" x2="0.423" y2="12.822" gradientUnits="objectBoundingBox"><stop offset="0" stop-color="#32a071"/><stop offset="0.068" stop-color="#2da771"/><stop offset="0.476" stop-color="#15cf74"/><stop offset="0.801" stop-color="#06e775"/><stop offset="1" stop-color="#00f076"/></linearGradient></defs><g transform="translate(-11.363 -11.363)"><g transform="translate(11.363 11.363)"><path d="M157.718,55.452H15.681A5.7,5.7,0,0,1,10,49.77V15.681A5.7,5.7,0,0,1,15.681,10H157.718a5.7,5.7,0,0,1,5.681,5.681V49.77A5.7,5.7,0,0,1,157.718,55.452Z" transform="translate(-10 -10)"/></g><g transform="translate(11.363 11.363)"><path class="a" d="M157.718,10.909a4.8,4.8,0,0,1,4.772,4.772V49.77a4.8,4.8,0,0,1-4.772,4.772H15.681a4.8,4.8,0,0,1-4.772-4.772V15.681a4.8,4.8,0,0,1,4.772-4.772H157.718m0-.909H15.681A5.7,5.7,0,0,0,10,15.681V49.77a5.7,5.7,0,0,0,5.681,5.681H157.718A5.7,5.7,0,0,0,163.4,49.77V15.681A5.7,5.7,0,0,0,157.718,10Z" transform="translate(-10 -10)"/></g><path class="b" d="M81.78,32.441a4.781,4.781,0,0,0-4.886,4.886,4.85,4.85,0,0,0,4.886,4.886,4.781,4.781,0,0,0,4.886-4.886A4.714,4.714,0,0,0,81.78,32.441Zm0,7.727a2.964,2.964,0,0,1,0-5.909,2.753,2.753,0,0,1,2.727,2.954A2.821,2.821,0,0,1,81.78,40.167ZM71.212,32.441a4.781,4.781,0,0,0-4.886,4.886,4.85,4.85,0,0,0,4.886,4.886A4.781,4.781,0,0,0,76.1,37.327,4.714,4.714,0,0,0,71.212,32.441Zm0,7.727a2.964,2.964,0,0,1,0-5.909,2.753,2.753,0,0,1,2.727,2.954A2.821,2.821,0,0,1,71.212,40.167ZM58.6,33.918v2.045h4.886a4.3,4.3,0,0,1-1.136,2.613,5.029,5.029,0,0,1-3.75,1.477A5.29,5.29,0,0,1,53.259,34.6,5.36,5.36,0,0,1,58.6,29.145a5.634,5.634,0,0,1,3.75,1.477l1.477-1.477A7.281,7.281,0,0,0,58.713,27.1a7.5,7.5,0,1,0,0,15A6.539,6.539,0,0,0,63.94,39.94a6.84,6.84,0,0,0,1.818-4.772,4.261,4.261,0,0,0-.114-1.25H58.6Zm51.588,1.591a4.415,4.415,0,0,0-4.091-3.068,4.576,4.576,0,0,0-4.545,4.886,4.755,4.755,0,0,0,4.772,4.886,4.661,4.661,0,0,0,3.977-2.159l-1.591-1.136a2.77,2.77,0,0,1-2.386,1.364,2.465,2.465,0,0,1-2.386-1.477l6.477-2.727ZM103.6,37.1a2.76,2.76,0,0,1,2.5-2.841,2.01,2.01,0,0,1,1.818,1.023Zm-5.341,4.659h2.159v-14.2H98.256Zm-3.409-8.295h0a3.741,3.741,0,0,0-2.613-1.136,4.882,4.882,0,0,0-4.659,4.886,4.705,4.705,0,0,0,4.659,4.772,3.263,3.263,0,0,0,2.5-1.136h.114v.682a2.583,2.583,0,0,1-5,1.136l-1.818.8A4.688,4.688,0,0,0,92.347,46.3c2.5,0,4.545-1.477,4.545-5V32.668H94.847v.8Zm-2.5,6.7a2.964,2.964,0,0,1,0-5.909,2.734,2.734,0,0,1,2.613,2.954A2.734,2.734,0,0,1,92.347,40.167Zm27.725-12.613H114.96v14.2h2.159V36.418h2.954a4.437,4.437,0,1,0,0-8.863Zm.114,6.818h-3.068V29.486h3.068a2.5,2.5,0,0,1,2.5,2.386A2.6,2.6,0,0,1,120.186,34.372Zm13.067-2.045a3.819,3.819,0,0,0-3.75,2.159l1.932.8a2.007,2.007,0,0,1,1.932-1.023,2.135,2.135,0,0,1,2.273,1.818v.114a4.507,4.507,0,0,0-2.159-.568c-2.045,0-4.091,1.136-4.091,3.182a3.329,3.329,0,0,0,3.523,3.182,3.2,3.2,0,0,0,2.727-1.364h.114v1.136H137.8V36.3A4.3,4.3,0,0,0,133.254,32.327Zm-.227,7.84c-.682,0-1.7-.341-1.7-1.25,0-1.136,1.25-1.477,2.273-1.477a4.394,4.394,0,0,1,1.932.455A2.646,2.646,0,0,1,133.027,40.167Zm11.931-7.5L142.571,38.8h-.114l-2.5-6.136h-2.273l3.75,8.636-2.159,4.772h2.159l5.8-13.408Zm-19.09,9.09h2.159v-14.2h-2.159Z" transform="translate(6.964 3.693)"/><g transform="translate(22.612 19.507)"><path class="c" d="M20.468,17.5a2.248,2.248,0,0,0-.568,1.591V44.2a2.248,2.248,0,0,0,.568,1.591l.114.114,14.09-14.09V31.59L20.468,17.5Z" transform="translate(-19.9 -17.122)"/><path class="d" d="M37.559,35.458,32.9,30.8v-.341L37.559,25.8l.114.114L43.24,29.1c1.591.909,1.591,2.386,0,3.3l-5.681,3.068Z" transform="translate(-18.128 -15.991)"/><path class="e" d="M39.376,34.772,34.6,30,20.4,44.2c.568.568,1.364.568,2.386.114l16.59-9.545" transform="translate(-19.832 -15.419)"/><path class="f" d="M39.376,26.976l-16.59-9.431a1.842,1.842,0,0,0-2.386.114l14.2,14.09Z" transform="translate(-19.832 -17.167)"/><g transform="translate(0.114 19.24)"><path class="g" d="M39.262,34.1,22.786,43.418a1.858,1.858,0,0,1-2.273,0h0l-.114.114h0l.114.114h0a1.858,1.858,0,0,0,2.273,0L39.262,34.1Z" transform="translate(-19.945 -34.1)"/><path class="h" d="M20.455,42.491A2.221,2.221,0,0,1,20,40.9v.114a2.248,2.248,0,0,0,.568,1.591v-.114Z" transform="translate(-20 -33.173)"/></g><path class="h" d="M42.681,31.477,37,34.659l.114.114,5.568-3.182A1.889,1.889,0,0,0,43.818,30h0C43.818,30.568,43.363,31.023,42.681,31.477Z" transform="translate(-17.569 -15.419)"/><path class="i" d="M22.841,17.659,45,30.272c.682.455,1.136.909,1.136,1.477h0A1.889,1.889,0,0,0,45,30.158L22.841,17.545C21.25,16.636,20,17.432,20,19.25v.114C20,17.545,21.25,16.75,22.841,17.659Z" transform="translate(-19.886 -17.168)"/></g><g transform="translate(58.292 19.09)"><path class="j" d="M51.3,23.818V17h2.045a3.537,3.537,0,0,1,2.5.909,3.255,3.255,0,0,1,.909,2.5,3.744,3.744,0,0,1-.909,2.5,3.537,3.537,0,0,1-2.5.909Zm.909-.8h1.25a2.4,2.4,0,0,0,1.818-.682,2.673,2.673,0,0,0,.682-1.932,2.673,2.673,0,0,0-.682-1.932,2.581,2.581,0,0,0-1.818-.682h-1.25Z" transform="translate(-51.3 -16.773)"/><path class="j" d="M57.2,23.818V17h.909v6.818Z" transform="translate(-50.496 -16.773)"/><path class="j" d="M61.386,23.959a2.5,2.5,0,0,1-1.477-.455A2.262,2.262,0,0,1,59,22.141l.8-.341a2.474,2.474,0,0,0,.568.909,1.7,1.7,0,0,0,2.045,0,1.15,1.15,0,0,0,.455-.8A1.033,1.033,0,0,0,62.409,21a2.564,2.564,0,0,0-1.25-.568,7.566,7.566,0,0,1-1.364-.682,1.459,1.459,0,0,1-.455-1.136,1.825,1.825,0,0,1,.568-1.25,2.16,2.16,0,0,1,1.477-.568,1.811,1.811,0,0,1,1.364.455,2.383,2.383,0,0,1,.682.909l-.8.341a1.134,1.134,0,0,0-.455-.568,1.224,1.224,0,0,0-.909-.227,2.674,2.674,0,0,0-.909.227,1.642,1.642,0,0,0-.227.8.982.982,0,0,0,.341.682,2.141,2.141,0,0,0,1.023.455,5.54,5.54,0,0,1,.8.341,2.377,2.377,0,0,1,.682.455,1.164,1.164,0,0,1,.568.682,1.932,1.932,0,0,1,0,1.818,1.369,1.369,0,0,1-.568.568c-.341,0-.568.114-.8.114A1.934,1.934,0,0,1,61.386,23.959Z" transform="translate(-50.251 -16.8)"/><path class="j" d="M65.109,23.818H64.2V17h2.273a2.393,2.393,0,0,1,1.477.568,1.832,1.832,0,0,1,.682,1.477,2,2,0,0,1-.682,1.477,2.393,2.393,0,0,1-1.477.568H65.109Zm0-3.636h1.477a1.29,1.29,0,0,0,.909-.341,1.227,1.227,0,0,0,.341-.8,1.032,1.032,0,0,0-.341-.8,1.29,1.29,0,0,0-.909-.341H65.109Z" transform="translate(-49.542 -16.773)"/><path class="j" d="M74.722,22.922a3.523,3.523,0,0,1-6.022-2.5,3.523,3.523,0,1,1,6.022,2.5ZM70.4,22.354a2.681,2.681,0,0,0,1.818.8,2.261,2.261,0,0,0,1.818-.8,2.741,2.741,0,0,0,.8-1.932,2.341,2.341,0,0,0-.8-1.932,2.682,2.682,0,0,0-1.818-.8,2.261,2.261,0,0,0-1.818.8,2.741,2.741,0,0,0-.8,1.932A2.341,2.341,0,0,0,70.4,22.354Z" transform="translate(-48.929 -16.786)"/><path class="j" d="M76,23.818V17h1.023l3.3,5.341h0V17h.909v6.818h-.909L76.8,18.25h0v5.568Z" transform="translate(-47.934 -16.773)"/><path class="j" d="M82,23.818V17h.909v6.818Z" transform="translate(-47.116 -16.773)"/><path class="j" d="M84.1,23.818V17h2.5a1.94,1.94,0,0,1,1.932,1.932,2.674,2.674,0,0,1-.227.909,1.164,1.164,0,0,1-.682.568h0a2.038,2.038,0,0,1,.8.568A1.389,1.389,0,0,1,88.759,22a1.882,1.882,0,0,1-.568,1.364,2.393,2.393,0,0,1-1.477.568H84.1Zm.909-3.863H86.6a1.032,1.032,0,0,0,.8-.341.982.982,0,0,0,.341-.682,2.406,2.406,0,0,0-.341-.8,1.032,1.032,0,0,0-.8-.341H85.009Zm0,3.068h1.818a1.165,1.165,0,0,0,1.136-1.136,1.227,1.227,0,0,0-.341-.8,1.032,1.032,0,0,0-.8-.341h-1.7v2.273Z" transform="translate(-46.83 -16.773)"/><path class="j" d="M89.2,23.818V17h.909v6.022h2.954v.8Z" transform="translate(-46.135 -16.773)"/><path class="j" d="M97.577,17.8H94.509v2.159H97.35v.8H94.509v2.159h3.068v.909H93.6V17h3.977Z" transform="translate(-45.535 -16.773)"/><path class="j" d="M104.277,17.8h-3.068v2.159h2.841v.8h-2.841v2.159h3.068v.909H100.3V17h3.977Z" transform="translate(-44.622 -16.773)"/><path class="j" d="M105,23.818V17h1.023l3.3,5.341h0V17h.909v6.818h-.909L105.8,18.25h0v5.568Z" transform="translate(-43.981 -16.773)"/></g></g></svg>