<svg xmlns="http://www.w3.org/2000/svg" viewBox="0 0 81.569 59.403"><defs><style>.a,.d{fill:#204a61;}.b{fill:#fff;stroke:#204a61;stroke-width:4px;}.c{fill:#f50057;}.c,.d{fill-rule:evenodd;}.e{stroke:none;}.f{fill:none;}</style></defs><g transform="translate(0 0)"><g transform="translate(0 2.66)"><g transform="translate(0 0)"><path class="a" d="M44.784,18a15.893,15.893,0,0,0-11.858,5.32H15.36A5.191,5.191,0,0,0,10.206,28.5V58.784H5.773q-.083,0-.166,0A1.773,1.773,0,0,0,4,60.558v9.226a5.087,5.087,0,0,0,5.153,4.959H80.415a5.087,5.087,0,0,0,5.153-4.959V60.558A1.773,1.773,0,0,0,83.8,58.784H79.362V28.5a5.191,5.191,0,0,0-5.153-5.181H56.643A15.893,15.893,0,0,0,44.784,18Zm0,3.546A12.347,12.347,0,0,1,57.2,33.959v8.866H55.424A1.773,1.773,0,0,0,53.65,44.6v3.547s-7.906-.037-17.732,0V44.6a1.773,1.773,0,0,0-1.773-1.773H32.372V33.959A12.347,12.347,0,0,1,44.784,21.546ZM15.36,26.866H30.515a15.818,15.818,0,0,0-1.69,7.093V44.6A1.773,1.773,0,0,0,30.6,46.372h1.773v3.546a1.773,1.773,0,0,0,1.773,1.773H55.424A1.773,1.773,0,0,0,57.2,49.918V46.372H58.97A1.773,1.773,0,0,0,60.743,44.6V33.959a15.82,15.82,0,0,0-1.69-7.093H74.209A1.577,1.577,0,0,1,75.816,28.5V58.784H13.753V28.5A1.576,1.576,0,0,1,15.36,26.866ZM7.546,62.331H31.485v1a5.212,5.212,0,0,0,5.153,5.209H52.93a5.212,5.212,0,0,0,5.153-5.209v-1H82.022v7.453A1.484,1.484,0,0,1,80.415,71.2H9.153a1.484,1.484,0,0,1-1.607-1.413Zm27.485,0H54.537v1a1.6,1.6,0,0,1-1.607,1.662H36.639a1.6,1.6,0,0,1-1.607-1.662Z" transform="translate(-4 -18)"/></g></g><g transform="translate(19.506 0)"><g class="b"><circle class="e" cx="20.392" cy="20.392" r="20.392"/><circle class="f" cx="20.392" cy="20.392" r="18.392"/></g><g transform="translate(10.334 10.683)"><path class="c" d="M47.338,36.046v8.932c0,.292.25.41.72.144s7.1-4.158,7.348-4.322.166-.393-.144-.576-7.4-4.266-7.636-4.322S47.338,35.755,47.338,36.046Z" transform="translate(-40.658 -31.004)"/><path class="d" d="M5.591,7.345v8.644c0,.151.056.082-.144,0S.986,12.056.837,11.955s-.055-.618.144-.864,3.961-3.6,4.178-3.746S5.591,7.086,5.591,7.345Zm3.041,10.2c.151-.088,7.342-4.216,7.476-4.294s.354-.112.288.144c-.058.226-1.144,6-1.152,6.195s-.429.4-.757.343-5.374-1.851-5.618-1.982S8.4,17.68,8.632,17.545Zm7.382-7.733C15.869,9.729,8.659,5.54,8.53,5.467s-.1.011.074-.129,5.757-2.046,5.94-2.038a.667.667,0,0,1,.66.55c.107.3,1.024,5.311,1.032,5.575s0,.514-.222.388Zm-3.219-7.8H6.023c-.181,0-.443.3-.144.72a13.562,13.562,0,0,0,.864,1.153c.238.251.3.374.864.144S12.624,2.383,12.795,2.3,12.795,2.014,12.795,2.014ZM.64,9.111,3.9,3.177c.087-.159.477-.244.7.221A13.564,13.564,0,0,1,5.2,4.71c.1.329.184.442-.29.827S1.045,8.995.892,9.106a.185.185,0,0,1-.252.005ZM17.071,4.553l3.46,5.82c.093.156-.032.535-.546.492a13.562,13.562,0,0,1-1.432-.154c-.337-.077-.474-.066-.566-.669s-1.022-5.08-1.04-5.268A.185.185,0,0,1,17.071,4.553ZM17.1,18.582,20.55,12.74c.092-.156-.032-.537-.544-.494a13.452,13.452,0,0,0-1.429.155c-.337.077-.473.066-.564.672s-1.02,5.1-1.038,5.287a.186.186,0,0,0,.123.221Zm-4.236,2.593H6.083c-.181,0-.444-.3-.144-.726A13.686,13.686,0,0,1,6.8,19.286c.239-.253.3-.377.865-.145s5.021,1.662,5.192,1.743S12.862,21.175,12.862,21.175ZM.694,14.019,3.958,20c.087.16.478.246.7-.222a13.718,13.718,0,0,0,.595-1.323c.105-.332.184-.446-.29-.834S1.1,14.137.947,14.025a.184.184,0,0,0-.253-.005Z" transform="translate(-0.64 -2.014)"/></g></g></g></svg>