<svg xmlns="http://www.w3.org/2000/svg" viewBox="0 0 88 88"><defs><style>.a{fill:#fff;}.a,.b,.c{stroke:#028c9b;}.a,.b{stroke-width:3px;}.b,.e{fill:none;}.b{fill-rule:evenodd;}.c{fill:#028c9b;}.d{stroke:none;}</style></defs><g transform="translate(-250 -992)"><g class="a" transform="translate(250 992)"><circle class="d" cx="44" cy="44" r="44"/><circle class="e" cx="44" cy="44" r="42.5"/></g><path class="b" d="M39.484,16.987c.228-5.432-12.776-8.077-13.339-8.7-.281-.308.652-8.3-6.4-8.291s-6.121,7.983-6.4,8.291C12.778,8.91-.225,11.555,0,16.987s7.128,2.642,8.6,4.241c1.287,1.4-6.033,10.357-6.852,16.045-.267,1.854.254,2.214,2.056,2.214l9.261,0c1.3,0,1.76-.746,2.429-1.774,1.482-2.275,3.273-5.933,4.247-5.932s2.765,3.657,4.247,5.932c.67,1.028,1.131,1.774,2.429,1.774l9.261,0c1.8,0,2.323-.36,2.056-2.214-.819-5.688-8.139-14.646-6.852-16.045C32.356,19.63,39.257,22.42,39.484,16.987Z" transform="translate(265.979 1020.244) rotate(-8)"/><g transform="matrix(0.966, 0.259, -0.259, 0.966, 304.074, 1003.294)"><path class="c" d="M12.621,5.874a.469.469,0,0,0,.021-.17,5.7,5.7,0,1,0-11.408,0,.469.469,0,0,0,.021.17A2.585,2.585,0,0,0,0,8.066v6.343a2.571,2.571,0,0,0,2.575,2.575H11.3a2.571,2.571,0,0,0,2.575-2.575V8.066A2.585,2.585,0,0,0,12.621,5.874ZM6.938,1.469a4.23,4.23,0,0,1,4.214,4.023H2.724A4.23,4.23,0,0,1,6.938,1.469Zm5.47,12.94A1.1,1.1,0,0,1,11.3,15.516H2.575a1.1,1.1,0,0,1-1.107-1.107V8.066A1.1,1.1,0,0,1,2.575,6.96H11.3a1.1,1.1,0,0,1,1.107,1.107Z"/></g></g></svg>