<svg xmlns="http://www.w3.org/2000/svg" viewBox="0 0 88 88"><defs><style>.a{fill:#fff;stroke:#028c9b;stroke-width:3px;}.b{fill:#028c9b;}.c{fill:#1bb0c0;}.d{stroke:none;}.e{fill:none;}</style></defs><g transform="translate(-246 -819)"><g class="a" transform="translate(246 819)"><circle class="d" cx="44" cy="44" r="44"/><circle class="e" cx="44" cy="44" r="42.5"/></g><g transform="translate(266.477 844.626)"><circle class="b" cx="5.304" cy="5.304" r="5.304" transform="translate(18.873 4.219)"/><path class="c" d="M10.32,14.719h0a3.019,3.019,0,0,0-.482-.422L4.473,8.933a2.323,2.323,0,1,0-3.315,3.255L8.21,19.3V40.938a2.394,2.394,0,0,0,2.351,2.351A2.289,2.289,0,0,0,12.851,41V33.886a.666.666,0,1,1,1.326,0v6.992a2.406,2.406,0,0,0,2.411,2.351,2.053,2.053,0,0,0,1.447-.542V24L11.4,17.251A3.374,3.374,0,0,1,10.32,14.719Z" transform="translate(-0.487 -3.568)"/><path class="c" d="M68.337,8.853a2.292,2.292,0,0,0-3.255,0l-5.425,5.425a3.445,3.445,0,0,1-.482.422,3.6,3.6,0,0,1-1.085,2.592l-6.69,6.69V42.667a2.476,2.476,0,0,0,1.567.542,2.289,2.289,0,0,0,2.29-2.29V33.867a.666.666,0,1,1,1.326,0v6.992a2.394,2.394,0,0,0,2.351,2.351,2.289,2.289,0,0,0,2.29-2.29V19.22l7.112-7.112A2.348,2.348,0,0,0,68.337,8.853Z" transform="translate(-20.713 -3.549)"/><path class="b" d="M44.37,15.953a2.292,2.292,0,0,0-3.255,0l-5.425,5.425a5.312,5.312,0,0,1-7.474,0l-5.364-5.364a2.345,2.345,0,0,0-3.375,3.255l7.052,7.112V48.019A2.447,2.447,0,0,0,28.94,50.37a2.342,2.342,0,0,0,2.351-2.29V40.967a.675.675,0,0,1,.6-.723c.362,0,.6.3.6.723v6.992a2.447,2.447,0,0,0,2.411,2.351,2.342,2.342,0,0,0,2.351-2.29V26.32l7.052-7.112A2.349,2.349,0,0,0,44.37,15.953Z" transform="translate(-7.776 -6.37)"/><path class="c" d="M15.811,10.244A3.563,3.563,0,0,1,21.6,9.279l.6.6a5.435,5.435,0,0,0,1.386-1.929.857.857,0,0,0,.121-.362,5.229,5.229,0,0,0,.3-1.688A5.3,5.3,0,0,0,13.4,5.9,5.458,5.458,0,0,0,15.811,10.244Z" transform="translate(-5.617 -0.54)"/><path class="c" d="M50.582,7.853a5.435,5.435,0,0,0,1.386,1.929l.6-.6a3.639,3.639,0,0,1,5.063,0,3.96,3.96,0,0,1,.723,1.025A5.3,5.3,0,1,0,50.1,5.8a5.229,5.229,0,0,0,.3,1.688Z" transform="translate(-20.196 -0.5)"/></g></g></svg>