<svg xmlns="http://www.w3.org/2000/svg" viewBox="0 0 91 91"><defs><style>.a{fill:#fff;stroke:#028c9b;stroke-width:3px;}.b{fill:#028c9b;}.c{stroke:none;}.d{fill:none;}</style></defs><g transform="translate(-2393 -1679)"><g class="a" transform="translate(2393 1679)"><circle class="c" cx="45.5" cy="45.5" r="45.5"/><circle class="d" cx="45.5" cy="45.5" r="44"/></g><g transform="translate(2419 1700)"><path class="b" d="M22.941,48.683H42.41a1.341,1.341,0,0,0,0-2.683H22.941a1.341,1.341,0,0,0,0,2.683Z" transform="translate(-14.17 -30.177)"/><path class="b" d="M19.125,44.372H3.543a.852.852,0,0,1-.86-.86V3.543a.852.852,0,0,1,.86-.86H33.468a.852.852,0,0,1,.86.86V28.068a1.85,1.85,0,0,0,1.238,1.754c.069.034.172.069.241.1a.888.888,0,0,0,1.2-.791V2.2A2.217,2.217,0,0,0,34.81,0H2.2A2.217,2.217,0,0,0,0,2.2V44.819a2.217,2.217,0,0,0,2.2,2.2H19.469a.86.86,0,0,0,.791-1.2c-.1-.275-.206-.55-.31-.86A.858.858,0,0,0,19.125,44.372Z"/><path class="b" d="M22.941,27.783H42.41a1.341,1.341,0,0,0,0-2.683H22.941a1.341,1.341,0,0,0,0,2.683Z" transform="translate(-14.17 -16.466)"/><path class="b" d="M22.941,69.583H42.41a1.343,1.343,0,0,0,1.341-1.341A1.322,1.322,0,0,0,42.41,66.9H22.941A1.343,1.343,0,0,0,21.6,68.241,1.322,1.322,0,0,0,22.941,69.583Z" transform="translate(-14.17 -43.888)"/><g transform="translate(21.763 29.558)"><path class="b" d="M75.644,90.4a.718.718,0,0,0-.372.112l-7.7,4.464a.767.767,0,0,0-.372.632h0v8.89a.72.72,0,0,0,.372.632l7.7,4.464a2.566,2.566,0,0,0,.3.112h.149a.538.538,0,0,0,.26-.074h0l7.7-4.464a.767.767,0,0,0,.372-.632V95.608h0a.72.72,0,0,0-.372-.632l-7.7-4.464a.455.455,0,0,0-.335-.112Zm0,1.6,6.249,3.608-6.249,3.608-6.249-3.608Zm-.037,2.418c-.632,0-1.153.335-1.153.744s.521.744,1.153.744h0c.632,0,1.153-.335,1.153-.744h0C76.76,94.752,76.239,94.417,75.607,94.417Zm-6.919,2.455,6.249,3.608v7.179l-6.249-3.608V96.873Zm13.949,0v7.179l-6.249,3.608v-7.179l6.249-3.608Zm-1.19,1.6a1.279,1.279,0,0,0-1,.632c-.335.521-.372,1.153,0,1.376.335.223.93,0,1.265-.521h0c.335-.521.372-1.153,0-1.376A.338.338,0,0,0,81.447,98.472Zm-11.2.558a.472.472,0,0,0-.223.037c-.409.149-.558.67-.372,1.228.186.521.67.856,1.042.744.409-.149.558-.67.372-1.228h0A.9.9,0,0,0,70.25,99.03Zm2.455,1.19a.472.472,0,0,0-.223.037c-.409.149-.558.67-.372,1.228h0a.947.947,0,0,0,1.042.744h0c.409-.149.558-.67.372-1.228h0a1.077,1.077,0,0,0-.818-.781Zm7.1,1.116a1.279,1.279,0,0,0-1,.632c-.335.521-.372,1.153,0,1.376h0c.335.223.93,0,1.265-.521s.372-1.153,0-1.376a.338.338,0,0,0-.26-.112Zm-9.486.93a.472.472,0,0,0-.223.037.93.93,0,0,0-.372,1.228.947.947,0,0,0,1.042.744.93.93,0,0,0,.372-1.228A1.077,1.077,0,0,0,70.325,102.266Zm2.381,1.265a.472.472,0,0,0-.223.037c-.409.149-.558.67-.372,1.228a.947.947,0,0,0,1.042.744c.409-.149.558-.67.372-1.228a1.077,1.077,0,0,0-.818-.781Zm5.543.707a1.279,1.279,0,0,0-1,.632c-.372.521-.372,1.153,0,1.376h0c.335.223.93,0,1.265-.558.335-.521.372-1.153,0-1.376a.538.538,0,0,0-.26-.074Z" transform="translate(-67.126 -90.326)"/><path class="b" d="M75.518,109.655h-.074a.6.6,0,0,1-.335-.112l-7.7-4.427A.8.8,0,0,1,67,104.41V95.482a.8.8,0,0,1,.409-.707l7.7-4.464a.75.75,0,0,1,.409-.112h0a.75.75,0,0,1,.409.112l7.7,4.464a.8.8,0,0,1,.409.707v8.928a.8.8,0,0,1-.409.707l-7.7,4.464a.6.6,0,0,1-.335.112h-.037C75.556,109.655,75.556,109.655,75.518,109.655Zm0-19.306h0a1.086,1.086,0,0,0-.335.074l-7.7,4.464a.691.691,0,0,0-.335.558v8.928a.614.614,0,0,0,.335.558l7.7,4.427a.538.538,0,0,0,.26.074h.149a.69.69,0,0,0,.26-.074l7.7-4.464a.691.691,0,0,0,.335-.558V95.408a.614.614,0,0,0-.335-.558l-7.7-4.464C75.742,90.386,75.63,90.349,75.518,90.349Zm.67,17.372v-7.4l6.435-3.72V104Zm.186-7.291v6.956l6.063-3.5V96.933Zm-1.488,7.291L68.451,104V96.6l6.435,3.72Zm-6.249-3.831,6.063,3.5V100.43l-6.063-3.5v6.956Zm8.779,2.418a.519.519,0,0,1-.335-.112,1.076,1.076,0,0,1,0-1.488,1.351,1.351,0,0,1,1.079-.67h0a.6.6,0,0,1,.335.112.769.769,0,0,1,.3.67,1.562,1.562,0,0,1-1.376,1.488Zm.67-2.083a1.209,1.209,0,0,0-.893.6,1.5,1.5,0,0,0-.26.744.512.512,0,0,0,.223.484.5.5,0,0,0,.558,0,1.592,1.592,0,0,0,.6-.521,1.5,1.5,0,0,0,.26-.744.512.512,0,0,0-.223-.484.314.314,0,0,0-.26-.074Zm-5.245,1.3a.9.9,0,0,1-.484-.149,1.311,1.311,0,0,1-.484-.67,1.016,1.016,0,0,1,.409-1.339.633.633,0,0,1,.26-.037h0a1.194,1.194,0,0,1,.93.818,1.016,1.016,0,0,1-.409,1.339A.472.472,0,0,1,72.84,105.526Zm-.3-2.009a.224.224,0,0,0-.149.037c-.335.112-.484.632-.3,1.116a.927.927,0,0,0,.409.558.707.707,0,0,0,.521.112c.335-.112.484-.632.3-1.116a.937.937,0,0,0-.781-.707Zm-2.083.744a1.176,1.176,0,0,1-.967-.818A1.016,1.016,0,0,1,69.9,102.1a.633.633,0,0,1,.26-.037h0a1.194,1.194,0,0,1,.93.818,1.247,1.247,0,0,1,.037.818.713.713,0,0,1-.446.521A.472.472,0,0,1,70.459,104.261Zm-.3-2.009a.224.224,0,0,0-.149.037c-.335.112-.484.632-.3,1.116s.6.781.93.67a.548.548,0,0,0,.335-.409,1.164,1.164,0,0,0-.037-.707.937.937,0,0,0-.781-.707Zm8.816,1.153a.628.628,0,0,1-.372-.112.769.769,0,0,1-.3-.67,1.586,1.586,0,0,1,.3-.856,1.451,1.451,0,0,1,1.079-.67h0a.6.6,0,0,1,.335.112.769.769,0,0,1,.3.67,1.586,1.586,0,0,1-.3.856,1.693,1.693,0,0,1-.67.6A1.637,1.637,0,0,1,78.978,103.405Zm.67-2.083a1.209,1.209,0,0,0-.893.6,1.5,1.5,0,0,0-.26.744.512.512,0,0,0,.223.484.5.5,0,0,0,.558,0,1.592,1.592,0,0,0,.6-.521,1.5,1.5,0,0,0,.26-.744.512.512,0,0,0-.223-.484.314.314,0,0,0-.26-.074Zm-6.77.893a1.176,1.176,0,0,1-.967-.818,1.016,1.016,0,0,1,.409-1.339.633.633,0,0,1,.26-.037,1.194,1.194,0,0,1,.93.818,1.248,1.248,0,0,1,.037.818.713.713,0,0,1-.446.521A.553.553,0,0,1,72.877,102.215Zm-.335-2.009a.224.224,0,0,0-.149.037c-.335.112-.484.632-.3,1.116s.6.781.93.67a.548.548,0,0,0,.335-.409,1.164,1.164,0,0,0-.037-.707.937.937,0,0,0-.781-.707Zm-2.12.781a1.176,1.176,0,0,1-.967-.818,1.247,1.247,0,0,1-.037-.818.713.713,0,0,1,.446-.521.633.633,0,0,1,.26-.037,1.1,1.1,0,0,1,.893.818,1.016,1.016,0,0,1-.409,1.339A.279.279,0,0,1,70.422,100.988Zm-.335-2.009a.224.224,0,0,0-.149.037.548.548,0,0,0-.335.409,1.164,1.164,0,0,0,.037.707c.186.484.6.781.93.67s.484-.632.3-1.116a.946.946,0,0,0-.781-.707Zm10.527,1.562a.519.519,0,0,1-.335-.112,1.076,1.076,0,0,1,0-1.488,1.451,1.451,0,0,1,1.079-.67h0a.6.6,0,0,1,.335.112,1.076,1.076,0,0,1,0,1.488A1.588,1.588,0,0,1,80.615,100.541Zm.67-2.083a1.209,1.209,0,0,0-.893.6c-.335.484-.335,1.042-.037,1.228s.818-.037,1.153-.521.335-1.042.037-1.228a.538.538,0,0,0-.26-.074Zm-5.766.744-6.435-3.72,6.435-3.72,6.435,3.72Zm-6.063-3.72,6.063,3.5,6.063-3.5-6.063-3.5Zm6.026.409c-.67,0-1.228-.372-1.228-.856s.558-.856,1.228-.856,1.228.372,1.228.856S76.151,95.891,75.481,95.891Zm0-1.488c-.6,0-1.042.3-1.042.67s.484.67,1.042.67c.6,0,1.042-.3,1.042-.67S76.039,94.4,75.481,94.4Z" transform="translate(-67 -90.2)"/></g></g></g></svg>