<svg xmlns="http://www.w3.org/2000/svg" viewBox="0 0 88 88"><defs><style>.a{fill:#fff;stroke:#028c9b;stroke-width:3px;}.b{fill:#028c9b;fill-rule:evenodd;}.c{stroke:none;}.d{fill:none;}</style></defs><g transform="translate(-249 -1163)"><g class="a" transform="translate(249 1163)"><circle class="c" cx="44" cy="44" r="44"/><circle class="d" cx="44" cy="44" r="42.5"/></g><g transform="translate(274.626 1185.242)"><g transform="translate(0 0)"><path class="b" d="M19.8,17.5A5.8,5.8,0,1,0,14,11.7a5.819,5.819,0,0,0,5.8,5.8Zm0-8.7a2.9,2.9,0,1,1-2.9,2.9,2.849,2.849,0,0,1,2.9-2.9Z" transform="translate(-0.945 -0.195)"/><path class="b" d="M30.285,9.284A11.032,11.032,0,0,0,19.357,0,11.226,11.226,0,0,0,8.333,9.477L.5,8.123V38.1l13.055,2.321,11.6-2.031,13.055,2.224V10.637l-7.93-1.354ZM19.357,2.9a8.14,8.14,0,0,1,7.446,11.6c-.967,2.224-5.029,7.253-7.446,10.154-2.418-2.9-6.479-7.93-7.446-10.154A8.14,8.14,0,0,1,19.357,2.9ZM3.4,35.684V11.508l4.932.87A10.439,10.439,0,0,0,9.3,15.763a28,28,0,0,0,2.9,4.448v17.02L3.4,35.684Zm11.6,1.547V23.982c1.741,2.127,3.095,3.771,3.288,3.965L19.357,29.2l1.064-1.257c.1-.193,1.547-1.837,3.288-3.965v11.7l-8.7,1.547Zm20.308,0-8.7-1.547V20.211a37.1,37.1,0,0,0,2.9-4.448,11.561,11.561,0,0,0,.967-3.578l4.932.87V37.231Z" transform="translate(-0.5)"/></g></g></g></svg>