<svg xmlns="http://www.w3.org/2000/svg" viewBox="0 0 91 91"><defs><style>.a{fill:#fff;stroke-width:3px;}.a,.b{stroke:#028c9b;}.b{fill:#028c9b;}.c{stroke:none;}.d{fill:none;}</style></defs><g transform="translate(-244 -1330)"><g class="a" transform="translate(244 1330)"><circle class="c" cx="45.5" cy="45.5" r="45.5"/><circle class="d" cx="45.5" cy="45.5" r="44"/></g><g transform="translate(272 1346)"><g transform="translate(1 2)"><path class="b" d="M30.139,57.5H.861A.861.861,0,0,1,0,56.639V42.861A.861.861,0,0,1,.861,42H30.139a.861.861,0,0,1,.861.861V56.639A.861.861,0,0,1,30.139,57.5ZM1.722,55.778H29.278V43.722H1.722Z" transform="translate(0 -5.833)"/><path class="b" d="M30.139,40.806H.861A.861.861,0,0,1,0,39.944V21.861A.861.861,0,0,1,.861,21H30.139a.861.861,0,0,1,.861.861V39.944A.861.861,0,0,1,30.139,40.806ZM1.722,39.083H29.278V22.722H1.722Z" transform="translate(0 -2.917)"/><path class="b" d="M30.139,19.806H.861A.861.861,0,0,1,0,18.944V.861A.861.861,0,0,1,.861,0H30.139A.861.861,0,0,1,31,.861V18.944A.861.861,0,0,1,30.139,19.806ZM1.722,18.083H29.278V1.722H1.722Z"/><path class="b" d="M27.25,54.611H4.861A.861.861,0,0,1,4,53.75V46.861A.861.861,0,0,1,4.861,46H27.25a.861.861,0,0,1,.861.861V53.75A.861.861,0,0,1,27.25,54.611ZM5.722,52.889H26.389V47.722H5.722Z" transform="translate(-0.556 -6.389)"/><path class="b" d="M20.028,50.722H14.861a.861.861,0,1,1,0-1.722h5.167a.861.861,0,1,1,0,1.722Z" transform="translate(-1.944 -6.806)"/><path class="b" d="M17.861,52.444A.861.861,0,0,1,17,51.583V49.861a.861.861,0,0,1,1.722,0v1.722A.861.861,0,0,1,17.861,52.444Z" transform="translate(-2.361 -6.806)"/><path class="b" d="M15.306,21.056H11.861A.861.861,0,0,1,11,20.194V9.861A.861.861,0,0,1,11.861,9h3.444a.861.861,0,0,1,.861.861V20.194A.861.861,0,0,1,15.306,21.056Zm-2.583-1.722h1.722V10.722H12.722Z" transform="translate(-1.528 -1.25)"/><path class="b" d="M23.306,21.056H19.861A.861.861,0,0,1,19,20.194V9.861A.861.861,0,0,1,19.861,9h3.444a.861.861,0,0,1,.861.861V20.194A.861.861,0,0,1,23.306,21.056Zm-2.583-1.722h1.722V10.722H20.722Z" transform="translate(-2.639 -1.25)"/><path class="b" d="M11.306,21.333H7.861A.861.861,0,0,1,7,20.472V11.861A.861.861,0,0,1,7.861,11h3.444a.861.861,0,0,1,.861.861v8.611A.861.861,0,0,1,11.306,21.333ZM8.722,19.611h1.722V12.722H8.722Z" transform="translate(-0.972 -1.528)"/><path class="b" d="M19.306,21.333H15.861A.861.861,0,0,1,15,20.472V11.861A.861.861,0,0,1,15.861,11h3.444a.861.861,0,0,1,.861.861v8.611A.861.861,0,0,1,19.306,21.333Zm-2.583-1.722h1.722V12.722H16.722Z" transform="translate(-2.083 -1.528)"/><path class="b" d="M27.306,21.333H23.861A.861.861,0,0,1,23,20.472V11.861A.861.861,0,0,1,23.861,11h3.444a.861.861,0,0,1,.861.861v8.611A.861.861,0,0,1,27.306,21.333Zm-2.583-1.722h1.722V12.722H24.722Z" transform="translate(-3.194 -1.528)"/><path class="b" d="M16.75,41.5a7.75,7.75,0,1,1,7.75-7.75A7.758,7.758,0,0,1,16.75,41.5Zm0-13.778a6.028,6.028,0,1,0,6.028,6.028A6.035,6.035,0,0,0,16.75,27.722Z" transform="translate(-1.25 -3.611)"/><path class="b" d="M29.306,42.611a.86.86,0,0,1-.771-.476l-3.444-6.889a.861.861,0,0,1,1.541-.771l3.444,6.889a.862.862,0,0,1-.77,1.247Z" transform="translate(-3.472 -4.722)"/><path class="b" d="M5.86,42.611a.86.86,0,0,1-.77-1.246l3.444-6.889a.861.861,0,0,1,1.541.771L6.631,42.136A.86.86,0,0,1,5.86,42.611Z" transform="translate(-0.694 -4.722)"/><path class="b" d="M13.861,35.167A.861.861,0,0,1,13,34.306,4.31,4.31,0,0,1,17.306,30a.861.861,0,0,1,0,1.722,2.586,2.586,0,0,0-2.583,2.583A.861.861,0,0,1,13.861,35.167Z" transform="translate(-1.806 -4.167)"/></g></g></g></svg>