<svg xmlns="http://www.w3.org/2000/svg" viewBox="0 0 62 62"><defs><style>.a{fill:#55acee;}.b{fill:#f1f2f2;}</style></defs><ellipse class="a" cx="31" cy="31" rx="31" ry="31" transform="translate(0 0)"/><g transform="translate(13.871 18.804)"><path class="b" d="M61.22,37.5a14.784,14.784,0,0,1-4.256,1.165,7.43,7.43,0,0,0,3.259-4.1,14.833,14.833,0,0,1-4.705,1.8A7.416,7.416,0,0,0,42.89,43.127a21.034,21.034,0,0,1-15.273-7.743,7.418,7.418,0,0,0,2.293,9.893,7.358,7.358,0,0,1-3.356-.928c0,.031,0,.063,0,.094A7.414,7.414,0,0,0,32.5,51.708a7.439,7.439,0,0,1-3.346.128,7.418,7.418,0,0,0,6.922,5.146A14.958,14.958,0,0,1,25.1,60.05,20.96,20.96,0,0,0,36.461,63.38c13.629,0,21.083-11.291,21.083-21.083,0-.321-.007-.641-.022-.958a15.026,15.026,0,0,0,3.7-3.835Z" transform="translate(-25.103 -34.028)"/></g></svg>