<svg xmlns="http://www.w3.org/2000/svg" viewBox="0 0 72.955 70.899">
  <defs>
    <style>
      .cls-1, .cls-3 {
        fill: #f50057;
      }

      .cls-1 {
        stroke: #fff;
        stroke-width: 2px;
      }

      .cls-2 {
        fill: #fff;
      }

      .cls-2, .cls-3 {
        fill-rule: evenodd;
      }
    </style>
  </defs>
  <g id="Group_2762" data-name="Group 2762" transform="translate(-841.567 -4671.113)">
    <path id="Union_5" data-name="Union 5" class="cls-1" d="M0,34.45A34.45,34.45,0,1,1,63.14,53.527L69.807,66.86,56.524,60.9A34.451,34.451,0,0,1,0,34.45Z" transform="translate(842.567 4672.113)"/>
    <g id="Group_2656" data-name="Group 2656" transform="translate(856.166 4690.731)">
      <path id="Forma_3_copia_5" data-name="Forma 3 copia 5" class="cls-2" d="M110.088,94.651l7.691-13.018c.206-.348-.071-1.2-1.211-1.1a29.975,29.975,0,0,0-3.184.345c-.75.172-1.055.147-1.257,1.5s-2.272,11.363-2.313,11.783A.414.414,0,0,0,110.088,94.651Z" transform="translate(-78.509 -62.191)"/>
      <path id="Forma_3_copia_4" data-name="Forma 3 copia 4" class="cls-2" d="M110.9,36.764l7.712,12.971c.206.347-.071,1.193-1.216,1.1a30.222,30.222,0,0,1-3.192-.343c-.752-.171-1.057-.147-1.261-1.492s-2.278-11.322-2.318-11.741A.413.413,0,0,1,110.9,36.764Z" transform="translate(-79.058 -33.974)"/>
      <path id="Forma_3_copia_8" data-name="Forma 3 copia 8" class="cls-2" d="M27.017,83.715l7.274,13.334c.194.356,1.065.549,1.562-.5A30.578,30.578,0,0,0,37.178,93.6c.234-.741.41-.993-.647-1.858s-8.61-7.77-8.951-8.019A.411.411,0,0,0,27.017,83.715Z" transform="translate(-26.897 -63.973)"/>
      <path id="Forma_3_copia_7" data-name="Forma 3 copia 7" class="cls-2" d="M69.465,117.7H54.357c-.4,0-.99-.676-.321-1.618a30.5,30.5,0,0,1,1.929-2.59c.532-.563.667-.84,1.929-.324s11.19,3.7,11.572,3.884S69.465,117.7,69.465,117.7Z" transform="translate(-44.139 -82.646)"/>
      <path id="Forma_3_copia_6" data-name="Forma 3 copia 6" class="cls-2" d="M63.054,90.869c.337-.2,16.362-9.4,16.662-9.57s.789-.251.642.321c-.129.5-2.55,13.377-2.569,13.806s-.956.9-1.687.765-11.976-4.125-12.52-4.417S62.542,91.168,63.054,90.869Z" transform="translate(-48.43 -61.994)"/>
      <path id="Forma_3_copia_9" data-name="Forma 3 copia 9" class="cls-2" d="M80.1,47.513c-.322-.184-16.391-9.52-16.678-9.684s-.219.025.165-.288S76.419,32.982,76.828,33A1.487,1.487,0,0,1,78.3,34.224c.239.666,2.283,11.837,2.3,12.424S80.591,47.794,80.1,47.513Z" transform="translate(-48.388 -31.728)"/>
      <path id="Forma_3_copia_2" data-name="Forma 3 copia 2" class="cls-2" d="M68.03,32.014H52.939c-.4,0-.988.669-.321,1.605a30.223,30.223,0,0,0,1.926,2.568c.531.559.666.833,1.926.321s11.178-3.673,11.559-3.853S68.03,32.014,68.03,32.014Z" transform="translate(-42.536 -32.014)"/>
      <path id="Forma_3" data-name="Forma 3" class="cls-2" d="M37.262,49.55V68.813c0,.338.126.182-.321,0S27,60.05,26.667,59.824s-.122-1.377.321-1.926,8.827-8.033,9.312-8.348S37.262,48.973,37.262,49.55Z" transform="translate(-25.591 -41.814)"/>
      <path id="Forma_3_copia" data-name="Forma 3 copia" class="cls-2" d="M26.64,46.767l7.266-13.226c.194-.354,1.064-.544,1.562.492a30.229,30.229,0,0,1,1.324,2.925c.234.733.41.985-.646,1.843s-8.6,7.707-8.943,7.954A.413.413,0,0,1,26.64,46.767Z" transform="translate(-26.64 -31.906)"/>
      <path id="Forma_1" data-name="Forma 1" class="cls-3" d="M60.338,47.3V67.2c0,.651.558.914,1.605.321s15.828-9.266,16.375-9.632.369-.875-.321-1.284S61.51,47.1,60.98,46.975,60.338,46.646,60.338,47.3Z" transform="translate(-47.364 -40.203)"/>
    </g>
  </g>
</svg>
